<svg width="710" height="497" viewBox="0 0 710 497" fill="none" xmlns="http://www.w3.org/2000/svg">
<g clip-path="url(#clip0)">
<path opacity="0.1" d="M302.055 19.1053C273.194 8.12451 242.696 -1.04801 211.563 0.105106C165.786 1.79547 121.842 27.5637 100.323 65.4004C82.0644 97.4583 79.8115 135.033 71.9463 170.609C62.267 214.434 43.6943 256.097 23.8642 296.83C13.2157 318.713 1.97777 341.067 0.229206 365.054C-2.19389 398.356 14.8136 431.541 41.4873 453.693C68.161 475.844 103.584 487.533 139.138 490.082C158.058 491.438 177.829 490.18 194.634 481.938C212.414 473.217 225.374 457.46 243.226 448.864C259.769 440.897 279.121 439.783 297.694 440.819C321.943 442.17 345.882 446.934 368.802 454.97C394.762 464.091 418.901 477.306 444.769 486.557C470.637 495.808 499.61 500.971 526.08 493.253C550.966 486 570.613 468.389 588.328 450.555C617.294 421.446 643.844 390.027 667.714 356.608C683.7 334.195 698.579 310.549 705.645 284.427C719.162 234.483 700.563 178.137 659.311 144.029C625.133 115.771 579.264 103.506 534.365 96.0628C493.421 89.2751 446.079 88.8558 408.39 71.1659C372.45 54.2754 339.744 33.4538 302.055 19.1053Z" fill="#FF0000"/>
<path d="M414.271 405.557V429.359H421.036L419.726 403.807L414.271 405.557Z" fill="#AAABB0"/>
<path d="M312.651 400.754V424.557H319.423L318.113 399.005L312.651 400.754Z" fill="#AAABB0"/>
<path d="M430.859 365.813C430.859 363.4 428.905 361.443 426.494 361.443C424.084 361.443 422.13 363.4 422.13 365.813V399.444C422.13 401.857 424.084 403.814 426.494 403.814C428.905 403.814 430.859 401.857 430.859 399.444V365.813Z" fill="#AAABB0"/>
<path d="M318.873 356.418C318.873 354.005 316.919 352.048 314.508 352.048C312.097 352.048 310.143 354.005 310.143 356.418V399.437C310.143 401.851 312.097 403.807 314.508 403.807C316.919 403.807 318.873 401.851 318.873 399.437V356.418Z" fill="#AAABB0"/>
<path d="M441.999 107.889C441.999 107.889 450.729 104.174 452.038 107.889C453.348 111.603 454.003 143.707 454.003 143.707H445.706L441.999 107.889Z" fill="#AAABB0"/>
<path d="M346.385 107.889C346.385 107.889 337.649 104.174 336.339 107.889C335.029 111.603 334.374 143.707 334.374 143.707H342.672L346.385 107.889Z" fill="#AAABB0"/>
<path d="M347.688 76.0009L346.378 102.647H352.272V75.3457L347.688 76.0009Z" fill="#AAABB0"/>
<path d="M342.672 143.707L344.42 105.268C344.42 105.268 343.765 96.7504 364.499 99.3711C385.233 101.992 445.928 107.233 445.928 107.233V143.707H342.672Z" fill="#33323D"/>
<path d="M425.627 346.158L422.352 404.901C422.352 404.901 374.323 431.548 316.037 406.212L321.276 344.409L425.627 346.158Z" fill="#33323D"/>
<path d="M380 114.873L381.088 152.873H448.764L444.835 102.647L380 114.873Z" fill="#444053"/>
<path d="M386.877 321.038H323.13V401.842H386.877V321.038Z" fill="#4C4981"/>
<path d="M363.412 354.02C363.412 354.02 372.581 346.813 374.106 348.995C375.632 351.177 368.658 360.572 365.816 359.478C362.973 358.384 363.412 354.02 363.412 354.02Z" fill="#FFB9B9"/>
<path d="M617.876 141.519H199.421V351.177H617.876V141.519Z" fill="#504F60"/>
<path d="M342.888 74.4743C342.888 74.4743 339.613 43.8971 342.888 40.1888C346.162 36.4804 401.173 1.31037 452.038 42.5867C452.038 42.5867 456.839 42.8095 455.968 53.7248C455.454 60.6332 455.489 67.5715 456.073 74.4743C456.073 74.4743 346.601 82.3365 342.888 74.4743Z" fill="#33323D"/>
<path opacity="0.1" d="M342.888 74.4743C342.888 74.4743 339.613 43.8971 342.888 40.1888C346.162 36.4804 401.173 1.31037 452.038 42.5867C452.038 42.5867 456.839 42.8095 455.968 53.7248C455.454 60.6332 455.489 67.5715 456.073 74.4743C456.073 74.4743 346.601 82.3365 342.888 74.4743Z" fill="black"/>
<path d="M342.888 78.4054C342.888 78.4054 339.613 47.8282 342.888 44.1198C346.162 40.4115 401.173 5.24146 452.038 46.5178C452.038 46.5178 456.839 46.7406 455.968 57.6559C455.454 64.5643 455.489 71.5025 456.073 78.4054C456.073 78.4054 346.601 86.2676 342.888 78.4054Z" fill="#33323D"/>
<path d="M457.932 64.4304C457.932 64.4304 461.423 77.534 460.336 79.7158C459.249 81.8975 459.445 88.0169 459.445 88.0169C459.445 88.0169 459.681 91.948 457.932 92.3804C456.184 92.8128 454.658 93.0356 456.073 94.3459C457.487 95.6563 456.073 97.6218 456.073 97.6218C456.073 97.6218 455.306 100.682 456.073 102.647C456.839 104.613 451.593 105.432 452.038 107.889C452.484 110.345 453.951 117.277 452.038 117.5C450.126 117.723 452.693 126.234 450.971 126.234C449.249 126.234 448.024 141.519 448.024 141.519C448.024 141.519 435.909 131.259 427.834 134.096C427.834 134.096 428.489 125.578 431.108 122.519C433.728 119.459 432.935 111.603 432.935 111.603L445.928 72.5088L457.932 64.4304Z" fill="#4C4981"/>
<path d="M393.098 245.116C390.263 248.254 387.204 231.495 387.204 231.495C387.204 231.495 379.129 242.633 373.89 235.21C370.262 230.066 373.124 215.495 375.2 207.037C376.13 203.276 376.916 200.721 376.916 200.721L388.704 198.755C388.704 198.755 388.743 201.324 389.005 204.442C389.359 208.655 390.125 213.884 391.756 215.135C394.631 217.304 395.941 241.951 393.098 245.116Z" fill="#AE6E79"/>
<path opacity="0.1" d="M386.988 48.9223C386.988 48.9223 366.464 48.7061 361.447 59.6214C356.431 70.5367 356.208 74.2581 354.244 76.0009C352.279 77.7437 375.632 86.9228 375.632 86.9228L376.726 124.484C376.726 124.484 381.31 119.839 388.73 121.942C396.15 124.045 405.541 121.942 405.541 121.942C405.541 121.942 405.102 121.149 411.219 121.942C417.336 122.735 436.76 112.475 436.76 112.475C436.76 112.475 437.081 96.0429 436.649 92.5442C436.216 89.0455 450.506 63.3363 450.506 63.3363C450.506 63.3363 461.639 52.6372 450.074 48.9223C450.074 48.9223 445.981 42.7505 435.45 42.8095C424.919 42.8684 386.988 48.9223 386.988 48.9223Z" fill="black"/>
<path d="M386.988 48.2671C386.988 48.2671 366.464 48.0509 361.447 58.9662C356.431 69.8815 356.208 73.6029 354.244 75.3457C352.279 77.0885 375.632 86.2676 375.632 86.2676L376.726 123.829C376.726 123.829 381.31 119.184 388.73 121.287C396.15 123.39 405.541 121.287 405.541 121.287C405.541 121.287 405.102 120.494 411.219 121.287C417.336 122.08 436.76 111.82 436.76 111.82C436.76 111.82 444.396 99.3712 443.964 95.8791C443.531 92.3869 459.242 65.957 459.242 65.957C459.242 65.957 461.646 51.982 450.074 48.2671C450.074 48.2671 445.981 42.0953 435.45 42.1543C424.919 42.2133 386.988 48.2671 386.988 48.2671Z" fill="#4C4981"/>
<path opacity="0.1" d="M389.058 204.423C384.558 203.021 377.499 206.113 375.253 207.043C376.182 203.283 376.968 200.728 376.968 200.728L388.756 198.762C388.756 198.762 388.776 201.33 389.058 204.423Z" fill="black"/>
<path d="M360.57 75.3457H354.244C354.244 75.3457 352.934 88.6721 354.244 92.6031C355.553 96.5342 356.208 95.9642 355.769 98.8732C355.331 101.782 358.828 106.237 358.828 106.237C358.828 106.237 359.26 117.218 361.447 121.307C363.635 125.395 359.044 143.727 359.044 143.727C360.296 146.891 362.149 149.784 364.499 152.244C368.212 155.952 370.177 169.711 369.083 174.953C367.99 180.194 372.142 182.16 372.142 182.16C372.142 182.16 373.89 206.624 374.545 206.624C375.2 206.624 387.859 200.072 391.788 205.746L388.73 183.254L388.953 139.796C388.953 139.796 384.801 134.332 386.988 129.529C389.175 124.727 385.24 113.366 385.24 113.366L379.562 88.0365L360.57 75.3457Z" fill="#4C4981"/>
<path d="M321.276 420.626C321.276 420.626 312.108 418.66 311.892 420.626C311.676 422.591 300.975 442.686 314.295 448.582C327.616 454.479 363.189 467.143 421.042 450.764C421.042 450.764 424.749 452.074 423.878 443.996C423.007 435.918 423.007 426.961 423.007 426.961C423.007 426.961 414.271 424.557 407.722 425.435C401.173 426.313 344.198 437.883 321.276 420.626Z" fill="#33323D"/>
<path opacity="0.1" d="M321.276 420.626C321.276 420.626 312.108 418.66 311.892 420.626C311.676 422.591 300.975 442.686 314.295 448.582C327.616 454.479 363.189 467.143 421.042 450.764C421.042 450.764 424.749 452.074 423.878 443.996C423.007 435.918 423.007 426.961 423.007 426.961C423.007 426.961 414.271 424.557 407.722 425.435C401.173 426.313 344.198 437.883 321.276 420.626Z" fill="black"/>
<path d="M321.276 418.005C321.276 418.005 312.108 416.039 311.892 418.005C311.676 419.97 300.975 440.065 314.295 445.961C327.616 451.858 363.189 464.523 421.042 448.143C421.042 448.143 424.749 449.454 423.878 441.375C423.007 433.297 423.007 424.341 423.007 424.341C423.007 424.341 414.271 421.936 407.722 422.814C401.173 423.692 344.198 435.262 321.276 418.005Z" fill="#33323D"/>
<path d="M374.742 83.1948C374.179 86.3986 372.901 89.4779 372.705 92.7211C372.509 95.9642 373.759 99.6529 376.752 100.924C377.587 101.174 378.397 101.503 379.169 101.907C380.321 102.686 380.793 104.154 381.035 105.53C381.357 107.306 381.434 109.118 381.264 110.915C381.101 112.724 380.714 114.67 381.605 116.249C383.17 119.046 387.25 118.633 390.354 117.847L389.287 126.122C389.202 126.777 389.149 127.518 389.627 127.963C389.853 128.122 390.109 128.235 390.379 128.293C390.649 128.352 390.928 128.355 391.199 128.304C393.897 128.134 396.674 127.76 398.986 126.338C401.298 124.917 403.02 122.27 402.581 119.603C402.07 116.511 398.874 114.054 399.307 110.948C399.641 108.544 401.992 107.017 403.537 105.169C406.334 101.789 406.484 96.6522 404.29 92.8259C402.097 88.9997 397.859 86.6279 393.498 86.1955C391.081 85.9531 388.566 86.2479 386.294 85.4093C385.503 85.1191 384.79 84.65 384.211 84.0385C383.632 83.427 383.201 82.6898 382.954 81.8844" fill="#444053"/>
<path d="M298.578 374.547L300.863 369.567C300.863 369.567 313.202 358.069 316.037 357.263C318.873 356.457 330.445 352.945 332.193 352.945C333.942 352.945 365.816 351.196 365.816 351.196L369.522 359.936L329.521 368.722L316.037 378.55L298.578 374.547Z" fill="#767D9F"/>
<path d="M394.683 240.451L392.594 256.536L391.788 262.727L382.404 264.038C382.404 264.038 381.389 261.862 379.955 258.521C375.6 248.379 367.4 227.465 372.155 223.855C378.475 219.046 380.014 234.993 380.014 234.993L387.217 231.495L394.683 240.451Z" fill="#FFB9B9"/>
<path d="M393.118 270.373H345.723V342.004H393.118V270.373Z" fill="white"/>
<path opacity="0.1" d="M393.118 270.373H345.723V342.004H393.118V270.373Z" fill="black"/>
<path d="M414.419 274.252L367.534 267.317L357.063 338.177L403.948 345.112L414.419 274.252Z" fill="white"/>
<path d="M396.08 277.644L371.948 274.075L366.558 310.545L390.691 314.115L396.08 277.644Z" fill="#FF0000"/>
<path d="M393.209 325.249L363.971 320.924L362.801 328.844L392.038 333.169L393.209 325.249Z" fill="#FF0000"/>
<path opacity="0.1" d="M405.541 89.6483C420.671 89.6483 432.935 77.3781 432.935 62.2421C432.935 47.1061 420.671 34.8359 405.541 34.8359C390.412 34.8359 378.147 47.1061 378.147 62.2421C378.147 77.3781 390.412 89.6483 405.541 89.6483Z" fill="black"/>
<path d="M405.541 88.9931C420.671 88.9931 432.935 76.723 432.935 61.5869C432.935 46.4509 420.671 34.1808 405.541 34.1808C390.412 34.1808 378.147 46.4509 378.147 61.5869C378.147 76.723 390.412 88.9931 405.541 88.9931Z" fill="#AE6E79"/>
<path d="M382.954 81.8975C382.768 81.1916 382.835 80.4427 383.144 79.7813C384.185 77.6126 387.152 77.4226 389.555 77.534C395.207 77.7961 401.409 77.8288 405.829 74.2581C407.663 72.7905 409.713 69.1018 412.378 69.8029C414.749 70.4253 415.738 73.6422 418.207 74.3564C419.995 74.874 421.848 74.0485 423.669 73.7012C426.288 73.1836 428.973 73.616 431.632 73.6357C434.291 73.6554 437.179 73.1509 438.993 71.205C441.442 68.5843 441.043 64.4894 440.827 60.899C440.558 56.2611 440.873 51.6079 441.763 47.0485C442.654 42.5146 444.023 37.4435 441.521 33.5583C439.137 29.8566 434.199 28.841 430.827 26.0041C427.67 23.3834 426 19.1837 422.667 16.753C418.469 13.6933 412.765 14.1322 407.604 14.6629L396.405 15.8554C393.517 16.1633 390.511 16.5105 388.134 18.2337C383.845 21.3392 383.255 27.7927 379.195 31.1931C377.387 32.7 375.076 33.4469 373.013 34.5739C370.95 35.7008 368.959 37.4828 368.723 39.8153C368.527 41.7808 369.588 43.5957 370.105 45.4892C371.33 50.0099 369.417 54.6617 368.193 59.2152C366.968 63.7687 366.732 69.2984 370.288 72.3188C371.009 72.9346 371.847 73.4064 372.548 74.0485C374.951 76.2433 375.279 79.9451 374.722 83.1424" fill="#444053"/>
<path d="M407.774 95.8201C408.136 95.8201 408.429 95.0868 408.429 94.1821C408.429 93.2775 408.136 92.5442 407.774 92.5442C407.413 92.5442 407.119 93.2775 407.119 94.1821C407.119 95.0868 407.413 95.8201 407.774 95.8201Z" fill="#444053"/>
<path d="M407.774 102.647C408.136 102.647 408.429 101.914 408.429 101.009C408.429 100.104 408.136 99.3712 407.774 99.3712C407.413 99.3712 407.119 100.104 407.119 101.009C407.119 101.914 407.413 102.647 407.774 102.647Z" fill="#444053"/>
<path d="M393.249 245.07C393.95 244.264 394.415 242.194 394.683 239.462L386.877 229.726C386.877 229.726 390.184 248.602 393.249 245.07Z" fill="#AE6E79"/>
<path opacity="0.1" d="M402.051 405.995C402.051 405.995 389.241 425.808 349.221 423.685C311.518 421.72 293.116 403.159 293.994 396.607C294.871 390.055 291.59 374.108 299.665 369.522C304.347 366.868 310.51 368.441 314.858 370.236C316.361 370.846 318.005 371.018 319.601 370.732C321.197 370.445 322.68 369.712 323.876 368.617C327.851 365.034 335.265 360.998 346.968 364.175C348.474 364.577 350.062 364.548 351.552 364.09C356.424 362.603 368.022 360.021 376.438 365.754C377.768 366.671 379.331 367.191 380.945 367.253C382.56 367.314 384.158 366.915 385.554 366.102L385.672 366.029C389.601 363.625 407.938 386.34 407.938 386.34C407.938 386.34 408.816 403.814 402.051 405.995Z" fill="black"/>
<path d="M402.051 406.651C402.051 406.651 389.241 426.463 349.221 424.341C311.518 422.375 293.116 403.814 293.994 397.262C294.871 390.71 291.59 374.763 299.665 370.177C304.347 367.523 310.51 369.096 314.858 370.891C316.361 371.501 318.005 371.673 319.601 371.387C321.197 371.1 322.68 370.367 323.876 369.273C327.851 365.689 335.265 361.653 346.968 364.831C348.474 365.232 350.062 365.203 351.552 364.745C356.424 363.258 368.022 360.677 376.438 366.41C377.768 367.327 379.331 367.846 380.945 367.908C382.56 367.969 384.158 367.57 385.554 366.757L385.672 366.685C389.601 364.28 407.938 386.995 407.938 386.995C407.938 386.995 408.816 404.469 402.051 406.651Z" fill="#767D9F"/>
<path opacity="0.1" d="M349.221 414.408C363.63 414.408 375.311 402.722 375.311 388.306C375.311 373.89 363.63 362.203 349.221 362.203C334.811 362.203 323.13 373.89 323.13 388.306C323.13 402.722 334.811 414.408 349.221 414.408Z" fill="black"/>
<path d="M349.221 415.063C363.63 415.063 375.311 403.377 375.311 388.961C375.311 374.545 363.63 362.858 349.221 362.858C334.811 362.858 323.13 374.545 323.13 388.961C323.13 403.377 334.811 415.063 349.221 415.063Z" fill="#FFB9B9"/>
<path d="M341.742 366.396C339.004 367.137 336.306 368.552 334.97 370.878C334.165 372.28 333.883 373.964 332.717 375.13C331.067 376.788 328.284 376.82 326.05 377.751C323.817 378.681 322.344 381.957 324.531 382.992C322.252 383.11 320.562 385.213 320.281 387.303C319.999 389.393 320.792 391.477 321.558 393.468C324.06 399.915 326.751 406.644 332.265 411.23C341.251 418.713 354.794 418.365 366.863 417.573C367.849 417.605 368.827 417.379 369.699 416.917C371.009 416.053 371.173 414.395 371.389 412.94C372.299 406.729 375.665 401.088 377.865 395.159C380.066 389.229 380.97 382.265 377.263 377.017C371.808 369.233 350.923 363.907 341.742 366.396Z" fill="#B96B6B"/>
<path opacity="0.1" d="M392.594 256.536L391.789 262.727L382.404 264.038C382.404 264.038 381.389 261.862 379.955 258.521L392.443 256.175L392.594 256.536Z" fill="black"/>
<path d="M402.483 393.331L407.945 386.995L406.851 352.054C407.389 349.534 407.754 346.979 407.945 344.409C408.161 340.694 405.214 332.399 405.214 332.399C405.671 330.739 406.292 329.128 407.067 327.59C408.377 324.969 405.22 319.073 405.22 319.073C405.22 319.073 400.518 303.787 402.483 296.141C404.448 288.495 402.005 284.132 402.005 284.132C402.005 284.132 400.086 275.615 400.302 272.122C400.518 268.63 395.934 265.348 395.934 265.348L392.443 256.831L378.475 259.451V288.934C378.475 288.934 379.346 317.107 378.475 322.571C377.604 328.036 380.217 333.27 380.217 333.27C380.217 333.27 378.691 341.349 380 344.409C381.31 347.468 383.93 354.891 383.93 354.891C383.444 357.544 383.594 360.275 384.369 362.858C385.678 366.685 384.369 368.866 384.369 368.866L402.483 393.331Z" fill="#767D9F"/>
<g opacity="0.1">
<path opacity="0.1" d="M441.783 44.8929C441.044 48.7281 440.713 52.6306 440.794 56.5355C440.85 53.2886 441.19 50.0528 441.809 46.865C442.385 43.956 443.119 40.8243 442.962 37.9218C442.72 40.2686 442.327 42.5973 441.783 44.8929Z" fill="black"/>
<path opacity="0.1" d="M372.567 71.9388C371.867 71.2836 371.028 70.825 370.308 70.2026C368.396 68.5712 367.59 66.206 367.433 63.6508C367.243 66.9267 367.911 70.0977 370.308 72.1681C371.028 72.7905 371.867 73.2622 372.567 73.9043C374.032 75.3545 374.881 77.3141 374.938 79.3751C375.128 76.6233 374.571 73.7602 372.567 71.9388Z" fill="black"/>
<path opacity="0.1" d="M370.478 47.4743C370.593 46.0905 370.473 44.6973 370.125 43.3533C369.745 41.9512 369.064 40.5819 368.815 39.1732C368.815 39.3239 368.763 39.4812 368.743 39.6449C368.553 41.6105 369.614 43.4253 370.125 45.3188C370.313 46.024 370.431 46.746 370.478 47.4743Z" fill="black"/>
<path opacity="0.1" d="M439.013 69.0494C437.199 71.015 434.311 71.4998 431.652 71.4801C428.993 71.4605 426.301 71.0281 423.688 71.5522C421.868 71.9191 420.014 72.7381 418.226 72.2074C415.757 71.4932 414.769 68.2763 412.404 67.6539C409.713 66.9463 407.663 70.635 405.856 72.1026C401.435 75.6405 395.233 75.6078 389.582 75.3785C387.178 75.2671 384.211 75.4571 383.177 77.6323C382.861 78.2919 382.794 79.0432 382.987 79.7485L374.984 81.0065C374.954 81.6656 374.882 82.3221 374.768 82.972L382.987 81.6617C382.794 80.9563 382.861 80.205 383.177 79.5454C384.211 77.3702 387.178 77.1802 389.582 77.2916C395.233 77.5537 401.435 77.5864 405.856 74.0157C407.689 72.5481 409.739 68.8594 412.404 69.567C414.769 70.1829 415.757 73.4064 418.226 74.1205C420.014 74.6316 421.868 73.8126 423.688 73.4653C426.308 72.9412 428.993 73.3736 431.652 73.3933C434.311 73.4129 437.199 72.9084 439.013 70.9626C440.827 69.0167 441.089 66.1142 440.977 63.2838C440.899 65.4787 440.447 67.5098 439.013 69.0494Z" fill="black"/>
</g>
<g opacity="0.1">
<path opacity="0.1" d="M378.389 100.518C377.618 100.111 376.809 99.7823 375.973 99.535C374.552 98.8889 373.423 97.7344 372.81 96.2984C373.301 98.5588 374.545 100.616 376.628 101.501C377.464 101.748 378.273 102.077 379.044 102.483C379.538 102.832 379.936 103.298 380.203 103.84C379.942 102.555 379.463 101.245 378.389 100.518Z" fill="black"/>
<path opacity="0.1" d="M389.575 116.458C386.556 117.225 382.614 117.624 380.957 115.063C381.008 115.68 381.187 116.28 381.481 116.825C382.895 119.348 386.353 119.262 389.293 118.64L389.575 116.458Z" fill="black"/>
<path opacity="0.1" d="M401.808 118.253C402.227 120.914 400.498 123.567 398.206 124.963C395.914 126.358 393.118 126.745 390.42 126.928C389.991 126.984 389.555 126.934 389.149 126.784C389.026 127.061 388.987 127.368 389.035 127.667C389.084 127.966 389.218 128.245 389.423 128.468C389.627 128.692 389.892 128.852 390.185 128.927C390.479 129.003 390.788 128.991 391.075 128.894C393.773 128.723 396.549 128.35 398.861 126.928C401.173 125.506 402.902 122.859 402.457 120.193C402.331 119.52 402.113 118.867 401.808 118.253Z" fill="black"/>
<path opacity="0.1" d="M404.716 94.5359C405.116 96.1289 405.147 97.7921 404.806 99.3988C404.466 101.005 403.763 102.513 402.751 103.807C401.206 105.681 398.855 107.181 398.521 109.585C398.409 110.691 398.638 111.804 399.176 112.776C399.117 112.37 399.117 111.957 399.176 111.551C399.51 109.146 401.861 107.62 403.406 105.772C405.947 102.699 406.301 98.1722 404.716 94.5359Z" fill="black"/>
</g>
<g opacity="0.1">
<path opacity="0.1" d="M326.057 378.76C328.284 377.836 331.067 377.803 332.724 376.139C333.89 374.973 334.171 373.289 334.977 371.893C336.286 369.561 339.004 368.152 341.742 367.412C350.91 364.922 371.814 370.242 377.263 377.954C378.86 380.287 379.73 383.041 379.765 385.868C379.974 382.604 379.097 379.362 377.27 376.65C371.821 368.938 350.936 363.618 341.748 366.108C339.011 366.848 336.313 368.257 334.983 370.59C334.178 371.985 333.896 373.669 332.73 374.835C331.074 376.493 328.29 376.525 326.064 377.456C324.367 378.157 323.11 380.227 323.568 381.616C323.751 380.988 324.068 380.407 324.498 379.914C324.928 379.42 325.46 379.027 326.057 378.76Z" fill="black"/>
<path opacity="0.1" d="M320.294 388.279C320.569 386.183 322.259 384.086 324.544 383.968C324.304 383.868 324.09 383.716 323.916 383.522C323.743 383.328 323.615 383.098 323.542 382.848C322.673 383.171 321.908 383.726 321.331 384.452C320.754 385.178 320.386 386.049 320.268 386.969C320.206 387.502 320.206 388.041 320.268 388.574C320.294 388.476 320.294 388.378 320.294 388.279Z" fill="black"/>
</g>
<path d="M459.02 150.849H399.424V228.599H459.02V150.849Z" fill="white"/>
<path opacity="0.1" d="M459.02 150.849H399.424V228.599H459.02V150.849Z" fill="black"/>
<path d="M481.789 155.41L423.057 165.517L436.231 242.142L494.964 232.035L481.789 155.41Z" fill="white"/>
<path d="M451.09 215.378L437.291 217.752L440.386 235.754L454.185 233.38L451.09 215.378Z" fill="#FF0000"/>
<path d="M470.185 212.088L456.386 214.463L459.481 232.465L473.28 230.09L470.185 212.088Z" fill="#FF0000"/>
<path d="M483.678 185.714L435.286 194.027L438.39 212.111L486.782 203.797L483.678 185.714Z" fill="#FF0000"/>
<path d="M479.645 164.131L431.252 172.444L431.945 176.479L480.337 168.165L479.645 164.131Z" fill="#FF0000"/>
<path d="M481.232 171.552L432.84 179.866L433.532 183.9L481.924 175.587L481.232 171.552Z" fill="#FF0000"/>
<path d="M432.935 129.726C432.935 129.726 405.541 157.243 419.294 164.234C433.047 171.225 441.999 140.975 441.999 140.975L444.173 134.096L432.935 129.726Z" fill="#AE6E79"/>
<path opacity="0.1" d="M430.538 127.295L427.153 134.777C427.153 134.777 443.852 137.123 447.343 142.174L445.273 128.972L442.818 123.338L430.538 127.295Z" fill="black"/>
<path d="M431.193 126.64L427.807 134.122C427.807 134.122 444.507 136.467 447.998 141.519L445.928 128.317L443.473 122.682L431.193 126.64Z" fill="#4C4981"/>
<path d="M532.282 264.208L531.922 264.457L532.42 264.68L532.957 264.634L533.022 264.26L532.282 264.208Z" fill="#464A5F"/>
<path opacity="0.1" d="M532.282 264.208L531.922 264.457L532.42 264.68L532.957 264.634L533.022 264.26L532.282 264.208Z" fill="black"/>
<path d="M532.282 264.208L531.916 264.444L531.627 264.09L531.804 263.802L531.968 263.749L532.282 264.208Z" fill="#9C9CA1"/>
<path opacity="0.1" d="M532.282 264.208L531.916 264.444L531.627 264.09L531.804 263.802L531.968 263.749L532.282 264.208Z" fill="black"/>
<path d="M596.743 218.928L569.932 180.188C569.694 179.842 569.391 179.546 569.039 179.318C568.687 179.09 568.294 178.933 567.882 178.857C567.469 178.781 567.046 178.787 566.636 178.875C566.226 178.962 565.837 179.13 565.492 179.369L505.726 220.409C505.027 220.889 504.547 221.627 504.391 222.461C504.235 223.295 504.416 224.157 504.895 224.858L531.634 264.09L596.743 218.928Z" fill="#9C9CA1"/>
<path opacity="0.1" d="M596.743 218.928L569.932 180.188C569.694 179.842 569.391 179.546 569.039 179.318C568.687 179.09 568.294 178.933 567.882 178.857C567.469 178.781 567.046 178.787 566.636 178.875C566.226 178.962 565.837 179.13 565.492 179.369L505.726 220.409C505.027 220.889 504.547 221.627 504.391 222.461C504.235 223.295 504.416 224.157 504.895 224.858L531.634 264.09L596.743 218.928Z" fill="black"/>
<path d="M597.398 219.02L570.587 180.279C570.349 179.933 570.045 179.638 569.692 179.409C569.34 179.181 568.946 179.024 568.533 178.948C568.12 178.872 567.696 178.878 567.286 178.966C566.875 179.054 566.486 179.222 566.14 179.46L506.381 220.527C505.682 221.007 505.202 221.745 505.045 222.578C504.888 223.412 505.067 224.274 505.543 224.976L532.282 264.228L597.398 219.02Z" fill="#9C9CA1"/>
<path d="M619.808 226.679L597.542 219.525L532.42 264.686L555.04 272.09C555.546 272.254 556.084 272.299 556.61 272.219C557.136 272.139 557.637 271.938 558.072 271.631L619.992 227.891C620.108 227.826 620.201 227.727 620.26 227.608C620.318 227.488 620.339 227.353 620.319 227.222C620.299 227.09 620.239 226.968 620.148 226.871C620.057 226.774 619.938 226.707 619.808 226.679Z" fill="#464A5F"/>
<path opacity="0.1" d="M619.808 226.679L597.542 219.525L532.42 264.686L555.04 272.09C555.546 272.254 556.084 272.299 556.61 272.219C557.136 272.139 557.637 271.938 558.072 271.631L619.992 227.891C620.108 227.826 620.201 227.727 620.26 227.608C620.318 227.488 620.339 227.353 620.319 227.222C620.299 227.09 620.239 226.968 620.148 226.871C620.057 226.774 619.938 226.707 619.808 226.679Z" fill="black"/>
<path d="M619.671 226.227L597.405 219.066L532.282 264.228L554.902 271.618C555.408 271.786 555.945 271.832 556.472 271.753C556.999 271.675 557.5 271.474 557.934 271.166L619.854 227.426C619.966 227.359 620.055 227.261 620.11 227.143C620.166 227.025 620.185 226.894 620.165 226.765C620.145 226.636 620.088 226.517 620 226.421C619.912 226.325 619.797 226.258 619.671 226.227Z" fill="#464A5F"/>
<g opacity="0.1">
<path opacity="0.1" d="M586.881 217.29L585.237 214.932C585.138 214.795 584.99 214.702 584.824 214.671C584.658 214.641 584.487 214.675 584.346 214.768L581.903 216.399C581.766 216.496 581.671 216.642 581.639 216.806C581.606 216.971 581.637 217.142 581.727 217.284L583.239 219.61C583.334 219.749 583.479 219.847 583.643 219.882C583.808 219.917 583.98 219.888 584.123 219.8L586.697 218.182C586.837 218.086 586.934 217.939 586.969 217.773C587.003 217.607 586.971 217.434 586.881 217.29Z" fill="black"/>
<path opacity="0.1" d="M582.493 220.331L580.842 217.978C580.744 217.842 580.596 217.748 580.43 217.718C580.264 217.687 580.093 217.722 579.952 217.815L577.516 219.459C577.377 219.555 577.281 219.7 577.247 219.865C577.213 220.029 577.243 220.201 577.332 220.344L578.845 222.67C578.939 222.81 579.083 222.909 579.248 222.945C579.412 222.982 579.585 222.954 579.729 222.866L582.309 221.248C582.382 221.2 582.445 221.138 582.494 221.066C582.542 220.994 582.576 220.913 582.593 220.828C582.611 220.742 582.61 220.654 582.593 220.569C582.576 220.484 582.542 220.403 582.493 220.331Z" fill="black"/>
<path opacity="0.1" d="M577.882 223.521L576.232 221.169C576.133 221.032 575.985 220.939 575.819 220.908C575.654 220.878 575.482 220.913 575.341 221.005L572.899 222.65C572.76 222.747 572.664 222.894 572.631 223.06C572.598 223.226 572.63 223.398 572.722 223.541L574.235 225.867C574.329 226.006 574.474 226.104 574.639 226.139C574.803 226.174 574.975 226.145 575.119 226.057L577.692 224.439C577.766 224.391 577.829 224.33 577.878 224.258C577.928 224.186 577.962 224.105 577.98 224.02C577.998 223.934 577.998 223.846 577.981 223.761C577.965 223.675 577.931 223.594 577.882 223.521Z" fill="black"/>
<path opacity="0.1" d="M573.213 226.758L571.563 224.399C571.464 224.264 571.317 224.172 571.153 224.142C570.989 224.111 570.819 224.145 570.679 224.235L568.236 225.887C568.099 225.983 568.004 226.129 567.971 226.293C567.938 226.458 567.97 226.629 568.059 226.771L569.572 229.097C569.665 229.236 569.808 229.333 569.971 229.37C570.135 229.406 570.306 229.379 570.449 229.293L573.03 227.669C573.102 227.621 573.163 227.56 573.212 227.488C573.26 227.416 573.293 227.336 573.311 227.251C573.328 227.167 573.328 227.08 573.311 226.995C573.294 226.91 573.261 226.83 573.213 226.758Z" fill="black"/>
<path opacity="0.1" d="M568.55 229.988L566.9 227.636C566.801 227.499 566.653 227.406 566.487 227.375C566.321 227.345 566.15 227.379 566.009 227.472L563.573 229.117C563.435 229.212 563.339 229.357 563.305 229.522C563.27 229.687 563.301 229.858 563.39 230.001L564.902 232.327C564.996 232.467 565.14 232.566 565.305 232.603C565.47 232.639 565.642 232.611 565.786 232.523L568.367 230.899C568.439 230.851 568.501 230.79 568.549 230.718C568.597 230.646 568.631 230.566 568.648 230.481C568.665 230.397 568.665 230.31 568.648 230.225C568.631 230.14 568.598 230.06 568.55 229.988Z" fill="black"/>
<path opacity="0.1" d="M564.09 233.513L562.04 230.591C562.019 230.558 561.991 230.53 561.958 230.509C561.926 230.487 561.889 230.472 561.851 230.465C561.812 230.458 561.773 230.458 561.735 230.466C561.696 230.474 561.66 230.49 561.628 230.512L558.628 232.537C558.595 232.558 558.567 232.585 558.545 232.618C558.523 232.65 558.507 232.687 558.499 232.725C558.491 232.763 558.491 232.803 558.499 232.842C558.506 232.88 558.521 232.917 558.543 232.949L560.423 235.839C560.466 235.905 560.533 235.952 560.61 235.969C560.688 235.986 560.768 235.972 560.835 235.93L564.005 233.965C564.043 233.943 564.076 233.914 564.102 233.878C564.127 233.842 564.144 233.802 564.152 233.759C564.161 233.716 564.159 233.671 564.148 233.629C564.138 233.586 564.118 233.547 564.09 233.513Z" fill="black"/>
<path opacity="0.1" d="M559.427 236.743L557.365 233.821C557.342 233.788 557.314 233.76 557.281 233.738C557.247 233.717 557.21 233.702 557.171 233.694C557.132 233.687 557.092 233.688 557.054 233.696C557.015 233.704 556.978 233.72 556.945 233.742L553.946 235.767C553.882 235.812 553.838 235.88 553.823 235.957C553.808 236.034 553.824 236.114 553.867 236.179L555.747 239.069C555.767 239.103 555.794 239.133 555.826 239.156C555.858 239.18 555.895 239.196 555.933 239.205C555.972 239.213 556.012 239.214 556.051 239.206C556.09 239.199 556.127 239.183 556.16 239.16L559.323 237.195C559.363 237.176 559.399 237.148 559.427 237.113C559.455 237.079 559.475 237.038 559.485 236.994C559.495 236.951 559.495 236.906 559.485 236.862C559.475 236.818 559.456 236.778 559.427 236.743Z" fill="black"/>
<path opacity="0.1" d="M555.295 239.606L553.245 236.71C553.199 236.647 553.131 236.604 553.054 236.591C552.977 236.577 552.897 236.594 552.833 236.638L549.833 238.656C549.768 238.701 549.722 238.77 549.706 238.848C549.69 238.927 549.705 239.008 549.748 239.075L551.628 241.965C551.672 242.03 551.739 242.075 551.816 242.092C551.892 242.11 551.973 242.097 552.04 242.056L555.21 240.091C555.254 240.07 555.292 240.039 555.321 240.001C555.35 239.963 555.37 239.918 555.378 239.87C555.386 239.823 555.383 239.774 555.369 239.728C555.354 239.682 555.329 239.64 555.295 239.606Z" fill="black"/>
<path opacity="0.1" d="M550.672 242.803L548.622 239.881C548.576 239.818 548.507 239.775 548.43 239.762C548.353 239.748 548.274 239.765 548.209 239.809L545.21 241.827C545.177 241.849 545.148 241.877 545.126 241.91C545.103 241.943 545.088 241.98 545.08 242.019C545.072 242.058 545.072 242.098 545.08 242.137C545.087 242.176 545.103 242.213 545.125 242.246L547.004 245.136C547.048 245.201 547.116 245.247 547.192 245.264C547.269 245.281 547.349 245.268 547.417 245.227L550.586 243.262C550.625 243.24 550.658 243.209 550.683 243.173C550.709 243.137 550.726 243.096 550.734 243.052C550.742 243.009 550.741 242.964 550.73 242.921C550.719 242.878 550.699 242.838 550.672 242.803Z" fill="black"/>
<path opacity="0.1" d="M546.192 245.883L544.142 242.96C544.121 242.928 544.093 242.9 544.06 242.879C544.027 242.857 543.991 242.842 543.953 242.835C543.914 242.827 543.875 242.828 543.836 242.836C543.798 242.844 543.762 242.86 543.73 242.882L540.73 244.906C540.697 244.928 540.669 244.955 540.647 244.988C540.624 245.02 540.609 245.056 540.601 245.095C540.593 245.133 540.593 245.173 540.6 245.211C540.608 245.25 540.623 245.287 540.645 245.319L542.525 248.208C542.568 248.275 542.635 248.322 542.712 248.339C542.789 248.356 542.87 248.342 542.937 248.3L546.107 246.335C546.145 246.313 546.178 246.283 546.203 246.248C546.229 246.212 546.246 246.171 546.254 246.128C546.262 246.085 546.261 246.041 546.25 245.999C546.24 245.956 546.22 245.917 546.192 245.883Z" fill="black"/>
<path opacity="0.1" d="M541.713 249.014L539.683 246.086C539.637 246.022 539.568 245.98 539.491 245.966C539.414 245.953 539.335 245.97 539.27 246.014L536.27 248.032C536.237 248.053 536.209 248.082 536.186 248.115C536.164 248.147 536.149 248.185 536.141 248.223C536.133 248.262 536.133 248.303 536.14 248.342C536.148 248.381 536.163 248.418 536.185 248.451L538.065 251.34C538.109 251.405 538.176 251.451 538.253 251.468C538.33 251.485 538.41 251.472 538.477 251.432L541.647 249.466C541.684 249.443 541.715 249.412 541.738 249.376C541.762 249.339 541.777 249.298 541.784 249.255C541.79 249.212 541.787 249.169 541.774 249.127C541.762 249.086 541.741 249.047 541.713 249.014Z" fill="black"/>
<path opacity="0.1" d="M537.233 252.113L535.183 249.191C535.162 249.159 535.134 249.131 535.101 249.109C535.069 249.088 535.032 249.073 534.994 249.066C534.955 249.058 534.916 249.059 534.877 249.067C534.839 249.075 534.803 249.09 534.771 249.113L531.771 251.124C531.738 251.145 531.71 251.173 531.688 251.205C531.666 251.238 531.65 251.274 531.642 251.312C531.634 251.351 531.634 251.391 531.642 251.429C531.649 251.468 531.664 251.504 531.686 251.537L533.566 254.426C533.609 254.493 533.676 254.539 533.753 254.556C533.831 254.574 533.911 254.56 533.978 254.518L537.148 252.552C537.184 252.531 537.215 252.501 537.239 252.467C537.263 252.432 537.28 252.393 537.288 252.352C537.296 252.31 537.295 252.268 537.286 252.227C537.276 252.186 537.259 252.147 537.233 252.113Z" fill="black"/>
<path opacity="0.1" d="M583.933 213.025L582.283 210.667C582.184 210.53 582.037 210.436 581.871 210.406C581.705 210.375 581.533 210.41 581.393 210.503L578.976 212.154C578.838 212.25 578.742 212.395 578.708 212.559C578.673 212.724 578.704 212.896 578.793 213.038L580.305 215.364C580.4 215.504 580.545 215.601 580.709 215.636C580.874 215.672 581.046 215.642 581.189 215.554L583.77 213.936C583.912 213.837 584.009 213.685 584.04 213.515C584.07 213.344 584.032 213.168 583.933 213.025Z" fill="black"/>
<path opacity="0.1" d="M577.483 203.702L575.832 201.33C575.734 201.195 575.587 201.103 575.423 201.073C575.259 201.042 575.089 201.076 574.948 201.167L572.506 202.811C572.367 202.907 572.271 203.052 572.237 203.217C572.203 203.381 572.234 203.553 572.322 203.696L573.835 206.021C573.929 206.162 574.073 206.261 574.238 206.297C574.402 206.334 574.575 206.305 574.719 206.218L577.299 204.6C577.441 204.504 577.54 204.356 577.574 204.188C577.608 204.02 577.576 203.846 577.483 203.702Z" fill="black"/>
<path opacity="0.1" d="M579.539 216.065L577.889 213.713C577.79 213.578 577.644 213.486 577.479 213.456C577.315 213.425 577.145 213.459 577.005 213.549L574.562 215.194C574.425 215.291 574.33 215.436 574.297 215.601C574.264 215.765 574.296 215.936 574.385 216.078L575.891 218.404C575.985 218.545 576.129 218.644 576.294 218.68C576.459 218.717 576.631 218.688 576.776 218.601L579.356 216.983C579.429 216.935 579.491 216.873 579.54 216.801C579.589 216.729 579.623 216.648 579.64 216.562C579.657 216.477 579.657 216.389 579.64 216.304C579.622 216.218 579.588 216.137 579.539 216.065Z" fill="black"/>
<path opacity="0.1" d="M574.929 219.256L573.278 216.904C573.18 216.767 573.032 216.674 572.866 216.643C572.7 216.613 572.529 216.647 572.388 216.74L569.952 218.365C569.812 218.461 569.714 218.607 569.68 218.774C569.646 218.94 569.677 219.113 569.768 219.256L571.281 221.582C571.376 221.721 571.52 221.819 571.685 221.854C571.85 221.89 572.022 221.86 572.165 221.772L574.745 220.154C574.887 220.058 574.986 219.91 575.02 219.742C575.054 219.575 575.021 219.4 574.929 219.256Z" fill="black"/>
<path opacity="0.1" d="M570.259 222.493L568.616 220.134C568.517 219.997 568.369 219.904 568.203 219.873C568.037 219.843 567.866 219.877 567.725 219.97L565.282 221.641C565.145 221.738 565.05 221.883 565.017 222.048C564.985 222.212 565.016 222.383 565.105 222.525L566.618 224.851C566.713 224.991 566.858 225.088 567.022 225.123C567.187 225.159 567.359 225.129 567.502 225.041L570.076 223.423C570.151 223.375 570.215 223.313 570.265 223.24C570.315 223.167 570.35 223.084 570.367 222.997C570.384 222.91 570.383 222.821 570.365 222.734C570.346 222.647 570.31 222.565 570.259 222.493Z" fill="black"/>
<path opacity="0.1" d="M573.193 206.893L571.543 204.541C571.444 204.406 571.298 204.314 571.133 204.283C570.969 204.253 570.799 204.286 570.659 204.377L568.216 206.021C568.078 206.117 567.982 206.262 567.948 206.427C567.914 206.592 567.944 206.763 568.033 206.906L569.546 209.232C569.639 209.372 569.783 209.471 569.948 209.508C570.113 209.544 570.285 209.516 570.43 209.428L573.01 207.81C573.083 207.762 573.146 207.701 573.194 207.629C573.243 207.557 573.277 207.475 573.294 207.39C573.311 207.305 573.311 207.217 573.294 207.131C573.276 207.046 573.242 206.965 573.193 206.893Z" fill="black"/>
<path opacity="0.1" d="M568.583 210.09L566.933 207.731C566.834 207.595 566.686 207.501 566.52 207.471C566.354 207.44 566.183 207.475 566.042 207.568L563.606 209.192C563.468 209.288 563.371 209.433 563.337 209.598C563.303 209.763 563.334 209.934 563.422 210.077L564.935 212.403C565.03 212.542 565.175 212.64 565.339 212.675C565.504 212.71 565.676 212.681 565.819 212.593L568.399 210.975C568.538 210.879 568.634 210.734 568.668 210.569C568.702 210.404 568.672 210.233 568.583 210.09Z" fill="black"/>
<path opacity="0.1" d="M563.914 213.32L562.263 210.968C562.166 210.832 562.019 210.738 561.855 210.707C561.691 210.675 561.52 210.708 561.379 210.798L558.936 212.468C558.799 212.565 558.704 212.711 558.672 212.875C558.639 213.04 558.67 213.211 558.76 213.353L560.272 215.679C560.366 215.819 560.51 215.918 560.675 215.955C560.84 215.991 561.012 215.963 561.156 215.875L563.73 214.25C563.805 214.203 563.869 214.141 563.919 214.067C563.969 213.994 564.004 213.912 564.021 213.825C564.038 213.738 564.037 213.648 564.019 213.561C564 213.475 563.965 213.393 563.914 213.32Z" fill="black"/>
<path opacity="0.1" d="M565.597 225.723L563.946 223.371C563.849 223.234 563.703 223.141 563.538 223.109C563.374 223.078 563.203 223.11 563.062 223.2L560.639 224.851C560.502 224.948 560.407 225.094 560.374 225.258C560.341 225.423 560.373 225.594 560.462 225.736L561.949 228.062C562.042 228.2 562.185 228.298 562.349 228.334C562.512 228.371 562.683 228.344 562.826 228.258L565.407 226.633C565.479 226.586 565.542 226.525 565.59 226.454C565.639 226.383 565.674 226.302 565.691 226.218C565.709 226.133 565.71 226.046 565.693 225.961C565.677 225.876 565.644 225.795 565.597 225.723Z" fill="black"/>
<path opacity="0.1" d="M560.934 228.953L559.283 226.601C559.185 226.464 559.037 226.37 558.871 226.34C558.705 226.309 558.534 226.344 558.393 226.437L555.957 228.081C555.818 228.177 555.722 228.322 555.688 228.487C555.654 228.652 555.684 228.823 555.773 228.966L557.286 231.292C557.38 231.432 557.524 231.531 557.689 231.568C557.853 231.604 558.026 231.576 558.17 231.488L560.75 229.87C560.823 229.822 560.886 229.761 560.935 229.689C560.983 229.616 561.017 229.535 561.034 229.45C561.052 229.364 561.051 229.277 561.034 229.191C561.017 229.106 560.983 229.025 560.934 228.953Z" fill="black"/>
<path opacity="0.1" d="M556.474 232.478L554.424 229.555C554.402 229.523 554.374 229.495 554.342 229.474C554.309 229.452 554.273 229.437 554.234 229.43C554.196 229.422 554.156 229.423 554.118 229.431C554.08 229.439 554.044 229.455 554.012 229.477L551.012 231.501C550.979 231.523 550.951 231.55 550.928 231.583C550.906 231.615 550.891 231.651 550.883 231.69C550.875 231.728 550.875 231.768 550.882 231.806C550.89 231.845 550.905 231.882 550.927 231.914L552.807 234.804C552.827 234.837 552.854 234.866 552.887 234.889C552.919 234.912 552.955 234.928 552.993 234.937C553.032 234.945 553.072 234.946 553.11 234.939C553.149 234.932 553.186 234.917 553.219 234.895L556.389 232.93C556.427 232.908 556.46 232.878 556.485 232.843C556.511 232.807 556.528 232.766 556.536 232.723C556.544 232.68 556.543 232.636 556.532 232.594C556.521 232.551 556.502 232.512 556.474 232.478Z" fill="black"/>
<path opacity="0.1" d="M552.342 235.341L550.292 232.412C550.246 232.349 550.177 232.306 550.1 232.293C550.023 232.279 549.944 232.296 549.879 232.34L546.886 234.358C546.821 234.403 546.775 234.472 546.759 234.55C546.743 234.629 546.758 234.71 546.801 234.777L548.681 237.667C548.725 237.732 548.792 237.777 548.869 237.795C548.945 237.812 549.026 237.799 549.093 237.758L552.263 235.793C552.302 235.772 552.337 235.743 552.363 235.707C552.389 235.671 552.407 235.63 552.414 235.586C552.422 235.543 552.419 235.498 552.407 235.455C552.394 235.412 552.372 235.373 552.342 235.341Z" fill="black"/>
<path opacity="0.1" d="M547.718 238.538L545.668 235.616C545.622 235.553 545.553 235.51 545.476 235.496C545.4 235.483 545.32 235.5 545.256 235.544L542.256 237.562C542.223 237.583 542.195 237.611 542.173 237.643C542.15 237.675 542.135 237.712 542.127 237.75C542.119 237.789 542.119 237.828 542.126 237.867C542.134 237.905 542.149 237.942 542.171 237.975L544.051 240.87C544.095 240.936 544.162 240.981 544.239 240.998C544.315 241.015 544.396 241.002 544.463 240.962L547.633 238.997C547.671 238.974 547.704 238.944 547.73 238.908C547.755 238.872 547.772 238.83 547.78 238.787C547.789 238.743 547.787 238.699 547.776 238.656C547.766 238.613 547.746 238.573 547.718 238.538Z" fill="black"/>
<path opacity="0.1" d="M543.239 241.644L541.189 238.721C541.167 238.689 541.139 238.661 541.106 238.64C541.074 238.618 541.037 238.603 540.999 238.596C540.961 238.588 540.921 238.589 540.883 238.597C540.845 238.605 540.808 238.621 540.776 238.643L537.777 240.641C537.744 240.662 537.715 240.69 537.693 240.722C537.671 240.755 537.655 240.791 537.647 240.83C537.64 240.868 537.639 240.908 537.647 240.946C537.655 240.985 537.67 241.021 537.692 241.054L539.571 243.943C539.614 244.01 539.681 244.056 539.759 244.074C539.836 244.091 539.917 244.077 539.984 244.035L543.153 242.069C543.188 242.048 543.217 242.019 543.24 241.986C543.263 241.952 543.279 241.914 543.287 241.875C543.294 241.835 543.294 241.794 543.286 241.754C543.278 241.714 543.262 241.677 543.239 241.644Z" fill="black"/>
<path opacity="0.1" d="M571.857 214.82L570.207 212.468C570.108 212.333 569.962 212.241 569.797 212.211C569.633 212.18 569.463 212.214 569.323 212.305L566.88 213.956C566.743 214.052 566.648 214.198 566.615 214.363C566.582 214.527 566.614 214.698 566.703 214.84L568.216 217.166C568.311 217.304 568.454 217.4 568.617 217.435C568.78 217.47 568.951 217.442 569.094 217.356L571.674 215.738C571.747 215.69 571.81 215.628 571.858 215.556C571.907 215.484 571.941 215.403 571.958 215.318C571.975 215.232 571.975 215.144 571.958 215.059C571.94 214.974 571.906 214.892 571.857 214.82Z" fill="black"/>
<path opacity="0.1" d="M567.188 218.057L565.538 215.698C565.439 215.562 565.291 215.468 565.125 215.438C564.959 215.407 564.788 215.442 564.647 215.535L562.211 217.186C562.073 217.281 561.976 217.427 561.942 217.591C561.908 217.756 561.939 217.927 562.027 218.07L563.54 220.396C563.634 220.536 563.778 220.635 563.943 220.672C564.108 220.708 564.28 220.68 564.424 220.593L567.005 218.968C567.077 218.92 567.138 218.859 567.187 218.787C567.235 218.716 567.268 218.635 567.285 218.551C567.302 218.466 567.303 218.379 567.286 218.294C567.269 218.209 567.236 218.129 567.188 218.057Z" fill="black"/>
<path opacity="0.1" d="M562.532 221.287L560.881 218.935C560.782 218.798 560.635 218.705 560.469 218.674C560.303 218.644 560.132 218.678 559.991 218.771L557.548 220.416C557.411 220.512 557.316 220.658 557.283 220.823C557.25 220.987 557.282 221.158 557.371 221.3L558.884 223.626C558.978 223.766 559.122 223.865 559.286 223.902C559.451 223.939 559.624 223.91 559.768 223.823L562.342 222.198C562.414 222.151 562.477 222.09 562.526 222.018C562.574 221.947 562.609 221.867 562.626 221.782C562.644 221.697 562.645 221.61 562.628 221.525C562.612 221.44 562.579 221.359 562.532 221.287Z" fill="black"/>
<path opacity="0.1" d="M557.862 224.517L556.212 222.165C556.113 222.03 555.967 221.938 555.802 221.907C555.638 221.877 555.468 221.911 555.328 222.001L552.885 223.646C552.748 223.742 552.653 223.888 552.62 224.053C552.587 224.217 552.619 224.388 552.708 224.53L554.221 226.882C554.315 227.021 554.458 227.119 554.621 227.155C554.784 227.192 554.955 227.164 555.099 227.079L557.679 225.461C557.756 225.413 557.822 225.35 557.873 225.276C557.924 225.202 557.959 225.118 557.977 225.029C557.994 224.94 557.993 224.849 557.973 224.761C557.953 224.673 557.916 224.59 557.862 224.517Z" fill="black"/>
<path opacity="0.1" d="M553.435 228.042L551.385 225.12C551.364 225.087 551.336 225.06 551.303 225.038C551.271 225.016 551.234 225.001 551.196 224.994C551.157 224.987 551.118 224.987 551.079 224.995C551.041 225.003 551.005 225.019 550.973 225.041L547.973 227.066C547.908 227.11 547.863 227.178 547.847 227.255C547.831 227.332 547.846 227.412 547.888 227.479L549.768 230.374C549.789 230.407 549.817 230.436 549.849 230.458C549.881 230.48 549.918 230.496 549.956 230.504C549.995 230.512 550.034 230.512 550.073 230.504C550.111 230.497 550.148 230.482 550.18 230.46L553.35 228.494C553.388 228.472 553.421 228.443 553.446 228.407C553.472 228.372 553.489 228.331 553.497 228.288C553.506 228.245 553.504 228.2 553.493 228.158C553.483 228.116 553.463 228.076 553.435 228.042Z" fill="black"/>
<path opacity="0.1" d="M549.277 230.905L547.227 227.976C547.18 227.913 547.11 227.87 547.032 227.856C546.954 227.843 546.873 227.86 546.808 227.904L543.815 229.922C543.749 229.968 543.703 230.037 543.688 230.115C543.672 230.193 543.687 230.274 543.73 230.342L545.609 233.231C545.652 233.297 545.72 233.344 545.797 233.361C545.874 233.379 545.955 233.365 546.022 233.323L549.192 231.357C549.23 231.336 549.262 231.306 549.288 231.27C549.313 231.235 549.331 231.194 549.339 231.151C549.347 231.108 549.346 231.064 549.335 231.021C549.324 230.979 549.304 230.939 549.277 230.905Z" fill="black"/>
<path opacity="0.1" d="M544.653 234.089L542.603 231.161C542.556 231.097 542.486 231.054 542.408 231.041C542.33 231.027 542.25 231.044 542.184 231.089L539.185 233.107C539.12 233.153 539.076 233.222 539.06 233.3C539.044 233.377 539.058 233.458 539.1 233.526L540.986 236.415C541.029 236.482 541.096 236.528 541.173 236.546C541.25 236.563 541.331 236.549 541.398 236.507L544.561 234.541C544.601 234.521 544.635 234.492 544.662 234.457C544.689 234.422 544.707 234.381 544.716 234.337C544.725 234.294 544.724 234.249 544.713 234.206C544.702 234.163 544.682 234.123 544.653 234.089Z" fill="black"/>
<path opacity="0.1" d="M540.174 237.208L538.124 234.286C538.102 234.253 538.073 234.225 538.04 234.203C538.007 234.182 537.97 234.167 537.931 234.16C537.892 234.152 537.852 234.153 537.813 234.161C537.774 234.169 537.737 234.185 537.705 234.207L534.705 236.232C534.641 236.277 534.597 236.345 534.582 236.422C534.568 236.499 534.584 236.579 534.627 236.644L536.506 239.534C536.526 239.568 536.553 239.598 536.585 239.621C536.617 239.645 536.654 239.661 536.693 239.67C536.731 239.678 536.771 239.679 536.81 239.671C536.849 239.664 536.886 239.648 536.919 239.626L540.082 237.66C540.121 237.64 540.156 237.611 540.183 237.576C540.209 237.54 540.228 237.5 540.237 237.456C540.246 237.413 540.244 237.368 540.234 237.325C540.223 237.282 540.202 237.242 540.174 237.208Z" fill="black"/>
<path opacity="0.1" d="M538.759 244.743L536.709 241.82C536.663 241.757 536.595 241.714 536.518 241.701C536.441 241.688 536.361 241.705 536.297 241.748L533.297 243.766C533.264 243.788 533.236 243.815 533.214 243.848C533.191 243.88 533.176 243.916 533.168 243.955C533.16 243.993 533.16 244.033 533.167 244.071C533.175 244.11 533.19 244.147 533.212 244.179L535.092 247.075C535.136 247.14 535.203 247.186 535.28 247.203C535.357 247.22 535.437 247.207 535.504 247.167L538.674 245.201C538.712 245.179 538.745 245.149 538.771 245.112C538.796 245.076 538.814 245.035 538.822 244.991C538.83 244.948 538.828 244.903 538.818 244.86C538.807 244.817 538.787 244.777 538.759 244.743Z" fill="black"/>
<path opacity="0.1" d="M534.28 247.848L532.23 244.926C532.208 244.893 532.18 244.866 532.148 244.844C532.115 244.822 532.078 244.808 532.04 244.8C532.002 244.793 531.962 244.793 531.924 244.801C531.886 244.81 531.849 244.825 531.817 244.847L528.818 246.872C528.785 246.893 528.756 246.921 528.734 246.953C528.712 246.985 528.696 247.022 528.689 247.06C528.681 247.099 528.68 247.138 528.688 247.177C528.696 247.215 528.711 247.252 528.733 247.285L530.612 250.174C530.655 250.24 530.723 250.287 530.8 250.304C530.877 250.322 530.958 250.308 531.025 250.266L534.195 248.3C534.233 248.279 534.266 248.249 534.291 248.213C534.316 248.178 534.334 248.137 534.342 248.094C534.35 248.051 534.349 248.007 534.338 247.964C534.327 247.922 534.307 247.882 534.28 247.848Z" fill="black"/>
<path opacity="0.1" d="M541.313 229.28L539.348 226.529C539.287 226.443 539.194 226.385 539.09 226.367C538.986 226.348 538.879 226.371 538.792 226.43L535.963 228.337C535.919 228.366 535.881 228.403 535.851 228.447C535.822 228.491 535.801 228.54 535.791 228.592C535.781 228.644 535.781 228.697 535.791 228.749C535.801 228.801 535.822 228.85 535.851 228.894L537.62 231.613C537.647 231.658 537.683 231.697 537.726 231.727C537.769 231.758 537.817 231.78 537.868 231.791C537.92 231.803 537.973 231.804 538.024 231.795C538.076 231.786 538.126 231.766 538.17 231.737L541.163 229.857C541.212 229.83 541.255 229.794 541.29 229.75C541.324 229.706 541.35 229.656 541.364 229.601C541.378 229.547 541.381 229.491 541.372 229.436C541.363 229.38 541.343 229.327 541.313 229.28Z" fill="black"/>
<path opacity="0.1" d="M536.834 232.386L534.902 229.634C534.872 229.591 534.834 229.553 534.79 229.524C534.746 229.496 534.697 229.476 534.645 229.466C534.594 229.456 534.54 229.457 534.489 229.468C534.437 229.478 534.389 229.499 534.345 229.529L531.516 231.469C531.472 231.497 531.434 231.534 531.405 231.577C531.376 231.62 531.355 231.669 531.345 231.72C531.334 231.772 531.334 231.824 531.345 231.876C531.355 231.927 531.375 231.976 531.405 232.019L533.173 234.744C533.231 234.832 533.32 234.895 533.423 234.918C533.525 234.941 533.633 234.924 533.723 234.869L536.716 232.989C536.766 232.96 536.81 232.92 536.844 232.873C536.878 232.825 536.901 232.771 536.912 232.714C536.924 232.657 536.922 232.598 536.909 232.541C536.895 232.485 536.87 232.432 536.834 232.386Z" fill="black"/>
<path opacity="0.1" d="M532.354 235.491L530.422 232.733C530.36 232.648 530.268 232.589 530.164 232.571C530.06 232.553 529.953 232.576 529.866 232.635L527.037 234.541C526.993 234.57 526.955 234.608 526.925 234.652C526.896 234.696 526.875 234.745 526.865 234.797C526.854 234.848 526.854 234.902 526.865 234.953C526.875 235.005 526.896 235.054 526.925 235.098L528.693 237.817C528.721 237.862 528.757 237.901 528.8 237.932C528.842 237.963 528.891 237.984 528.942 237.996C528.993 238.008 529.047 238.009 529.098 237.999C529.15 237.99 529.199 237.971 529.244 237.942L532.236 236.061C532.283 236.033 532.323 235.995 532.354 235.95C532.386 235.906 532.407 235.855 532.418 235.802C532.429 235.748 532.429 235.693 532.418 235.64C532.407 235.587 532.386 235.536 532.354 235.491Z" fill="black"/>
<path opacity="0.1" d="M527.934 238.676L525.884 235.747C525.838 235.684 525.769 235.641 525.692 235.627C525.615 235.614 525.536 235.631 525.471 235.675L522.472 237.693C522.406 237.738 522.361 237.807 522.345 237.885C522.329 237.963 522.344 238.045 522.387 238.112L524.266 241.001C524.31 241.067 524.378 241.112 524.454 241.129C524.531 241.146 524.612 241.133 524.679 241.093L527.849 239.128C527.889 239.108 527.923 239.079 527.95 239.043C527.977 239.008 527.996 238.967 528.004 238.923C528.012 238.879 528.01 238.834 527.998 238.791C527.986 238.748 527.964 238.709 527.934 238.676Z" fill="black"/>
<path opacity="0.1" d="M580.941 208.439L579.166 205.917C579.066 205.781 578.918 205.689 578.752 205.659C578.586 205.63 578.415 205.666 578.275 205.759L571.346 210.614C571.212 210.712 571.12 210.857 571.088 211.02C571.057 211.183 571.088 211.351 571.176 211.492L572.846 214.074C572.894 214.145 572.956 214.206 573.028 214.254C573.1 214.302 573.18 214.335 573.265 214.351C573.349 214.367 573.436 214.367 573.521 214.35C573.605 214.333 573.685 214.299 573.756 214.25L580.79 209.33C580.925 209.229 581.015 209.081 581.043 208.915C581.071 208.749 581.035 208.578 580.941 208.439Z" fill="black"/>
<path opacity="0.1" d="M535.681 240.215L533.507 237.143C533.485 237.11 533.456 237.081 533.423 237.06C533.389 237.038 533.352 237.024 533.313 237.017C533.274 237.01 533.233 237.012 533.195 237.021C533.156 237.03 533.12 237.047 533.088 237.07L525.609 242.312C525.545 242.356 525.501 242.423 525.486 242.499C525.472 242.575 525.488 242.654 525.53 242.718L527.574 245.883C527.595 245.917 527.624 245.946 527.657 245.969C527.691 245.992 527.729 246.008 527.768 246.016C527.808 246.024 527.849 246.024 527.889 246.015C527.928 246.007 527.966 245.991 527.999 245.968L535.603 240.641C535.669 240.595 535.715 240.524 535.729 240.444C535.744 240.365 535.727 240.282 535.681 240.215Z" fill="black"/>
<path opacity="0.1" d="M559.473 216.714L557.469 213.779C557.424 213.715 557.356 213.67 557.279 213.656C557.202 213.641 557.122 213.657 557.057 213.7L540.449 224.917C540.383 224.961 540.338 225.029 540.322 225.106C540.306 225.183 540.321 225.263 540.364 225.33L542.413 228.474C542.435 228.509 542.464 228.538 542.497 228.561C542.531 228.584 542.568 228.6 542.608 228.608C542.648 228.616 542.689 228.615 542.728 228.607C542.768 228.599 542.806 228.583 542.839 228.56L559.395 217.133C559.427 217.111 559.455 217.082 559.477 217.049C559.499 217.016 559.514 216.979 559.521 216.94C559.528 216.901 559.528 216.861 559.52 216.822C559.511 216.783 559.496 216.747 559.473 216.714Z" fill="black"/>
</g>
<path d="M587.319 217.369L585.669 215.01C585.57 214.874 585.422 214.78 585.256 214.75C585.091 214.719 584.919 214.754 584.778 214.847L582.342 216.498C582.204 216.593 582.108 216.739 582.074 216.903C582.04 217.068 582.07 217.239 582.159 217.382L583.672 219.708C583.765 219.849 583.909 219.947 584.074 219.984C584.239 220.021 584.411 219.992 584.556 219.905L587.136 218.28C587.208 218.232 587.27 218.171 587.318 218.099C587.366 218.028 587.4 217.947 587.417 217.863C587.434 217.778 587.434 217.691 587.417 217.606C587.401 217.521 587.367 217.441 587.319 217.369Z" fill="#464A5F"/>
<path d="M582.905 220.409L581.255 218.057C581.156 217.922 581.01 217.83 580.845 217.799C580.681 217.769 580.511 217.803 580.371 217.893L577.928 219.538C577.79 219.634 577.694 219.779 577.66 219.943C577.626 220.108 577.656 220.279 577.745 220.422L579.258 222.748C579.351 222.889 579.495 222.987 579.66 223.024C579.825 223.061 579.997 223.032 580.142 222.945L582.722 221.326C582.795 221.279 582.858 221.217 582.906 221.145C582.955 221.073 582.989 220.992 583.006 220.906C583.023 220.821 583.023 220.733 583.006 220.648C582.988 220.562 582.954 220.481 582.905 220.409Z" fill="#464A5F"/>
<path d="M578.321 223.606L576.671 221.254C576.572 221.117 576.424 221.024 576.258 220.994C576.092 220.963 575.921 220.998 575.78 221.091L573.344 222.742C573.206 222.837 573.11 222.983 573.076 223.147C573.041 223.312 573.072 223.483 573.161 223.626L574.673 225.952C574.768 226.091 574.913 226.189 575.077 226.224C575.242 226.259 575.414 226.23 575.557 226.142L578.138 224.524C578.211 224.476 578.273 224.414 578.322 224.342C578.371 224.27 578.405 224.189 578.422 224.104C578.439 224.018 578.439 223.93 578.422 223.845C578.404 223.759 578.37 223.678 578.321 223.606Z" fill="#464A5F"/>
<path d="M573.645 226.836L571.995 224.478C571.896 224.343 571.75 224.251 571.585 224.22C571.421 224.19 571.251 224.223 571.111 224.314L568.668 225.965C568.596 226.014 568.535 226.076 568.487 226.149C568.44 226.221 568.407 226.303 568.391 226.388C568.375 226.473 568.376 226.561 568.395 226.646C568.413 226.731 568.448 226.811 568.498 226.882L570.01 229.208C570.104 229.349 570.248 229.447 570.413 229.484C570.578 229.521 570.75 229.492 570.895 229.405L573.468 227.78C573.544 227.732 573.61 227.669 573.66 227.594C573.711 227.519 573.746 227.435 573.762 227.347C573.779 227.258 573.777 227.167 573.757 227.079C573.737 226.992 573.699 226.909 573.645 226.836Z" fill="#464A5F"/>
<path d="M568.982 230.067L567.332 227.714C567.233 227.579 567.087 227.487 566.923 227.457C566.758 227.426 566.588 227.46 566.448 227.551L564.005 229.195C563.868 229.292 563.773 229.438 563.74 229.602C563.708 229.767 563.739 229.938 563.828 230.08L565.335 232.406C565.428 232.546 565.573 232.645 565.737 232.681C565.902 232.718 566.074 232.69 566.219 232.602L568.799 230.977C568.871 230.93 568.933 230.868 568.981 230.797C569.029 230.725 569.063 230.645 569.08 230.56C569.097 230.475 569.097 230.388 569.08 230.304C569.064 230.219 569.03 230.138 568.982 230.067Z" fill="#464A5F"/>
<path d="M564.523 233.591L562.473 230.669C562.451 230.637 562.423 230.609 562.39 230.587C562.358 230.566 562.321 230.551 562.283 230.544C562.244 230.536 562.205 230.537 562.167 230.545C562.129 230.553 562.092 230.568 562.06 230.591L559.061 232.615C559.028 232.636 558.999 232.664 558.977 232.696C558.955 232.729 558.939 232.765 558.931 232.804C558.923 232.842 558.923 232.882 558.931 232.92C558.938 232.959 558.954 232.995 558.976 233.028L560.855 235.917C560.898 235.984 560.965 236.031 561.043 236.048C561.12 236.065 561.201 236.051 561.268 236.009L564.437 234.043C564.475 234.022 564.508 233.992 564.534 233.957C564.559 233.921 564.577 233.88 564.585 233.837C564.593 233.794 564.591 233.75 564.581 233.707C564.57 233.665 564.55 233.625 564.523 233.591Z" fill="#464A5F"/>
<path d="M559.86 236.821L557.81 233.899C557.788 233.867 557.759 233.839 557.726 233.817C557.693 233.795 557.656 233.78 557.617 233.773C557.578 233.766 557.538 233.766 557.499 233.774C557.46 233.783 557.423 233.798 557.391 233.821L554.398 235.845C554.365 235.866 554.336 235.894 554.314 235.926C554.292 235.959 554.277 235.995 554.269 236.034C554.261 236.072 554.26 236.112 554.268 236.15C554.276 236.189 554.291 236.225 554.313 236.258L556.192 239.154C556.214 239.187 556.241 239.215 556.273 239.238C556.306 239.26 556.342 239.275 556.381 239.283C556.419 239.291 556.459 239.291 556.497 239.284C556.536 239.276 556.572 239.261 556.605 239.239L559.775 237.273C559.812 237.251 559.844 237.221 559.869 237.185C559.893 237.15 559.91 237.109 559.918 237.067C559.927 237.024 559.925 236.98 559.915 236.938C559.905 236.895 559.886 236.856 559.86 236.821Z" fill="#464A5F"/>
<path d="M555.727 239.685L553.678 236.756C553.632 236.693 553.563 236.65 553.486 236.636C553.409 236.623 553.33 236.64 553.265 236.684L550.266 238.676C550.2 238.721 550.154 238.79 550.138 238.868C550.122 238.946 550.138 239.028 550.18 239.095L552.06 241.984C552.104 242.049 552.171 242.095 552.248 242.112C552.325 242.129 552.405 242.116 552.473 242.076L555.642 240.11C555.676 240.089 555.706 240.06 555.729 240.027C555.752 239.993 555.767 239.955 555.775 239.916C555.783 239.876 555.783 239.835 555.775 239.795C555.767 239.755 555.75 239.718 555.727 239.685Z" fill="#464A5F"/>
<path d="M551.104 242.888L549.054 239.986C549.008 239.923 548.939 239.88 548.862 239.866C548.785 239.853 548.706 239.87 548.641 239.914L545.642 241.932C545.609 241.954 545.58 241.982 545.558 242.015C545.536 242.048 545.52 242.085 545.512 242.124C545.504 242.163 545.504 242.203 545.512 242.242C545.52 242.281 545.535 242.318 545.557 242.351L547.436 245.24C547.481 245.306 547.548 245.351 547.625 245.368C547.701 245.385 547.782 245.372 547.849 245.332L551.019 243.367C551.061 243.346 551.098 243.315 551.126 243.277C551.155 243.24 551.174 243.196 551.182 243.149C551.191 243.103 551.188 243.055 551.174 243.009C551.161 242.964 551.136 242.923 551.104 242.888Z" fill="#464A5F"/>
<path d="M546.624 245.987L544.575 243.065C544.553 243.033 544.525 243.005 544.492 242.983C544.46 242.962 544.423 242.947 544.385 242.94C544.346 242.932 544.307 242.933 544.269 242.941C544.23 242.949 544.194 242.964 544.162 242.987L541.163 245.011C541.13 245.032 541.101 245.06 541.079 245.092C541.057 245.125 541.041 245.161 541.033 245.2C541.025 245.238 541.025 245.278 541.033 245.316C541.04 245.355 541.056 245.391 541.077 245.424L542.957 248.313C542.978 248.347 543.005 248.376 543.037 248.399C543.069 248.422 543.105 248.438 543.144 248.446C543.182 248.455 543.222 248.456 543.261 248.449C543.3 248.441 543.337 248.427 543.37 248.405L546.539 246.439C546.577 246.418 546.61 246.388 546.636 246.353C546.661 246.317 546.678 246.276 546.687 246.233C546.695 246.19 546.693 246.146 546.683 246.103C546.672 246.061 546.652 246.021 546.624 245.987Z" fill="#464A5F"/>
<path d="M542.145 249.093L540.095 246.164C540.049 246.101 539.98 246.058 539.903 246.045C539.826 246.031 539.747 246.048 539.683 246.092L536.683 248.11C536.617 248.155 536.572 248.224 536.556 248.303C536.54 248.381 536.555 248.462 536.598 248.529L538.478 251.419C538.522 251.484 538.589 251.53 538.666 251.547C538.742 251.564 538.823 251.551 538.89 251.511L542.06 249.545C542.098 249.523 542.131 249.494 542.156 249.458C542.182 249.422 542.199 249.382 542.207 249.339C542.215 249.296 542.214 249.251 542.203 249.209C542.192 249.167 542.173 249.127 542.145 249.093Z" fill="#464A5F"/>
<path d="M537.665 252.192L535.616 249.27C535.594 249.237 535.566 249.21 535.533 249.188C535.501 249.166 535.464 249.151 535.426 249.144C535.387 249.137 535.348 249.137 535.31 249.145C535.271 249.153 535.235 249.169 535.203 249.191L532.204 251.216C532.171 251.237 532.142 251.265 532.12 251.297C532.098 251.329 532.082 251.366 532.074 251.404C532.066 251.443 532.066 251.482 532.074 251.521C532.081 251.559 532.097 251.596 532.119 251.629L533.998 254.518C534.019 254.551 534.046 254.58 534.078 254.603C534.11 254.626 534.147 254.642 534.185 254.651C534.223 254.659 534.263 254.66 534.302 254.653C534.341 254.646 534.378 254.631 534.411 254.61L537.58 252.644C537.618 252.622 537.651 252.593 537.677 252.557C537.702 252.522 537.72 252.481 537.728 252.438C537.736 252.395 537.734 252.35 537.724 252.308C537.713 252.266 537.693 252.226 537.665 252.192Z" fill="#464A5F"/>
<path d="M584.366 213.124L582.715 210.765C582.617 210.63 582.47 210.538 582.306 210.507C582.142 210.477 581.972 210.51 581.831 210.601L579.389 212.252C579.251 212.349 579.157 212.495 579.124 212.659C579.091 212.824 579.122 212.995 579.212 213.137L580.718 215.463C580.812 215.603 580.956 215.702 581.121 215.738C581.285 215.775 581.458 215.747 581.602 215.659L584.182 214.034C584.254 213.987 584.316 213.925 584.364 213.854C584.413 213.782 584.446 213.702 584.463 213.617C584.48 213.532 584.48 213.445 584.464 213.361C584.447 213.276 584.414 213.195 584.366 213.124Z" fill="#464A5F"/>
<path d="M577.915 203.781L576.265 201.429C576.166 201.294 576.02 201.201 575.855 201.171C575.691 201.14 575.521 201.174 575.381 201.265L572.938 202.909C572.801 203.006 572.706 203.152 572.673 203.316C572.64 203.481 572.672 203.652 572.761 203.794L574.274 206.12C574.367 206.258 574.51 206.356 574.674 206.392C574.837 206.429 575.008 206.402 575.151 206.316L577.732 204.698C577.805 204.65 577.867 204.589 577.916 204.517C577.965 204.444 577.999 204.363 578.016 204.278C578.033 204.192 578.033 204.104 578.016 204.019C577.998 203.934 577.964 203.853 577.915 203.781Z" fill="#464A5F"/>
<path d="M579.971 216.144L578.321 213.779C578.222 213.644 578.076 213.552 577.912 213.521C577.747 213.491 577.577 213.524 577.437 213.615L574.994 215.259C574.857 215.356 574.762 215.502 574.729 215.666C574.697 215.831 574.728 216.002 574.817 216.144L576.33 218.47C576.424 218.608 576.567 218.706 576.73 218.743C576.893 218.779 577.064 218.752 577.208 218.666L579.788 217.048C579.932 216.952 580.031 216.803 580.066 216.634C580.1 216.464 580.066 216.288 579.971 216.144Z" fill="#464A5F"/>
<path d="M575.361 219.335L573.737 216.983C573.638 216.848 573.492 216.755 573.327 216.725C573.163 216.694 572.993 216.728 572.853 216.819L570.41 218.463C570.271 218.56 570.175 218.707 570.142 218.873C570.109 219.039 570.142 219.212 570.233 219.354L571.739 221.68C571.834 221.82 571.979 221.917 572.143 221.952C572.308 221.988 572.48 221.958 572.624 221.87L575.204 220.252C575.275 220.202 575.335 220.139 575.381 220.066C575.427 219.993 575.459 219.911 575.473 219.826C575.488 219.741 575.486 219.653 575.466 219.569C575.447 219.485 575.411 219.405 575.361 219.335Z" fill="#464A5F"/>
<path d="M570.698 222.571L569.048 220.213C568.949 220.076 568.801 219.982 568.635 219.952C568.469 219.921 568.298 219.956 568.157 220.049L565.721 221.7C565.583 221.796 565.487 221.941 565.453 222.105C565.418 222.27 565.449 222.442 565.538 222.584L567.05 224.91C567.144 225.051 567.288 225.149 567.453 225.186C567.618 225.223 567.79 225.194 567.935 225.107L570.515 223.482C570.587 223.434 570.649 223.373 570.697 223.301C570.745 223.23 570.779 223.149 570.796 223.065C570.813 222.98 570.813 222.893 570.796 222.808C570.779 222.724 570.746 222.643 570.698 222.571Z" fill="#464A5F"/>
<path d="M573.625 206.971L571.975 204.606C571.877 204.471 571.73 204.379 571.566 204.349C571.401 204.318 571.232 204.352 571.091 204.442L568.648 206.087C568.511 206.184 568.416 206.329 568.384 206.494C568.351 206.658 568.382 206.829 568.472 206.971L569.984 209.297C570.078 209.436 570.221 209.534 570.384 209.57C570.547 209.607 570.718 209.579 570.862 209.494L573.442 207.876C573.586 207.779 573.685 207.631 573.72 207.461C573.754 207.292 573.72 207.116 573.625 206.971Z" fill="#464A5F"/>
<path d="M569.015 210.169L567.365 207.81C567.266 207.675 567.12 207.583 566.955 207.552C566.791 207.522 566.621 207.556 566.481 207.646L564.038 209.297C563.9 209.393 563.804 209.538 563.77 209.703C563.735 209.868 563.766 210.039 563.855 210.182L565.367 212.508C565.461 212.648 565.605 212.747 565.77 212.784C565.935 212.82 566.107 212.792 566.251 212.704L568.832 211.079C568.904 211.032 568.966 210.97 569.014 210.899C569.062 210.827 569.096 210.747 569.113 210.662C569.13 210.578 569.13 210.49 569.113 210.406C569.096 210.321 569.063 210.24 569.015 210.169Z" fill="#464A5F"/>
<path d="M564.352 213.399L562.702 211.047C562.603 210.91 562.455 210.816 562.289 210.786C562.124 210.755 561.952 210.79 561.811 210.883L559.375 212.527C559.237 212.623 559.141 212.768 559.107 212.933C559.073 213.098 559.103 213.269 559.192 213.412L560.704 215.744C560.798 215.885 560.942 215.983 561.107 216.02C561.272 216.057 561.444 216.028 561.589 215.941L564.162 214.316C564.236 214.269 564.299 214.208 564.348 214.136C564.398 214.064 564.432 213.983 564.45 213.897C564.468 213.812 564.468 213.724 564.451 213.638C564.435 213.553 564.401 213.471 564.352 213.399Z" fill="#464A5F"/>
<path d="M566.029 225.801L564.378 223.449C564.28 223.314 564.133 223.222 563.969 223.191C563.805 223.161 563.635 223.195 563.494 223.285L561.052 224.917C560.915 225.014 560.82 225.159 560.787 225.324C560.754 225.488 560.785 225.659 560.875 225.801L562.388 228.127C562.481 228.266 562.624 228.363 562.787 228.4C562.95 228.437 563.121 228.409 563.265 228.324L565.845 226.699C565.987 226.603 566.086 226.455 566.12 226.287C566.154 226.12 566.121 225.945 566.029 225.801Z" fill="#464A5F"/>
<path d="M561.366 229.031L559.716 226.679C559.617 226.544 559.47 226.452 559.306 226.422C559.142 226.391 558.972 226.425 558.832 226.515L556.389 228.193C556.251 228.288 556.154 228.434 556.12 228.598C556.086 228.763 556.117 228.934 556.205 229.077L557.718 231.403C557.812 231.543 557.956 231.642 558.121 231.679C558.286 231.716 558.458 231.687 558.602 231.6L561.183 229.981C561.26 229.934 561.327 229.871 561.379 229.796C561.431 229.721 561.466 229.636 561.484 229.547C561.501 229.457 561.499 229.365 561.479 229.277C561.459 229.188 561.42 229.104 561.366 229.031Z" fill="#464A5F"/>
<path d="M556.906 232.556L554.856 229.634C554.835 229.602 554.807 229.574 554.774 229.552C554.742 229.531 554.705 229.516 554.667 229.508C554.628 229.501 554.589 229.501 554.55 229.51C554.512 229.518 554.476 229.533 554.444 229.555L551.471 231.58C551.438 231.601 551.409 231.629 551.387 231.661C551.365 231.694 551.349 231.73 551.341 231.768C551.333 231.807 551.333 231.847 551.341 231.885C551.348 231.924 551.364 231.96 551.385 231.993L553.265 234.882C553.286 234.916 553.313 234.945 553.345 234.968C553.377 234.99 553.413 235.007 553.452 235.015C553.49 235.024 553.53 235.024 553.569 235.017C553.608 235.01 553.645 234.995 553.678 234.974L556.847 233.008C556.882 232.984 556.912 232.952 556.934 232.916C556.957 232.879 556.971 232.838 556.977 232.795C556.982 232.753 556.979 232.709 556.967 232.668C556.955 232.627 556.934 232.589 556.906 232.556Z" fill="#464A5F"/>
<path d="M552.78 235.4L550.731 232.471C550.683 232.407 550.613 232.364 550.535 232.351C550.457 232.338 550.377 232.355 550.311 232.399L547.312 234.417C547.248 234.463 547.203 234.532 547.187 234.61C547.171 234.688 547.186 234.768 547.227 234.836L549.113 237.726C549.156 237.792 549.223 237.839 549.3 237.856C549.378 237.873 549.459 237.859 549.526 237.817L552.689 235.852C552.728 235.832 552.763 235.803 552.789 235.767C552.816 235.732 552.835 235.691 552.843 235.648C552.852 235.604 552.851 235.56 552.84 235.517C552.829 235.474 552.809 235.434 552.78 235.4Z" fill="#464A5F"/>
<path d="M548.15 238.623L546.1 235.694C546.054 235.631 545.986 235.588 545.909 235.575C545.832 235.562 545.753 235.579 545.688 235.622L542.688 237.64C542.623 237.686 542.577 237.755 542.561 237.833C542.545 237.911 542.56 237.992 542.603 238.06L544.483 240.949C544.527 241.014 544.594 241.06 544.671 241.077C544.748 241.094 544.828 241.081 544.895 241.041L548.065 239.075C548.105 239.055 548.14 239.027 548.167 238.991C548.194 238.955 548.212 238.914 548.22 238.87C548.228 238.827 548.226 238.781 548.214 238.739C548.202 238.696 548.18 238.656 548.15 238.623Z" fill="#464A5F"/>
<path d="M543.677 241.722L541.647 238.8C541.625 238.768 541.597 238.74 541.565 238.718C541.532 238.697 541.496 238.682 541.457 238.674C541.419 238.667 541.379 238.667 541.341 238.676C541.303 238.684 541.267 238.699 541.235 238.721L538.235 240.746C538.17 240.79 538.124 240.858 538.109 240.935C538.093 241.012 538.108 241.092 538.15 241.159L540.03 244.048C540.073 244.114 540.14 244.161 540.217 244.178C540.294 244.196 540.375 244.182 540.442 244.14L543.612 242.174C543.649 242.152 543.681 242.121 543.706 242.085C543.73 242.048 543.746 242.007 543.752 241.964C543.758 241.921 543.755 241.876 543.742 241.835C543.729 241.793 543.707 241.754 543.677 241.722Z" fill="#464A5F"/>
<path d="M572.29 214.906L570.646 212.547C570.547 212.41 570.399 212.317 570.233 212.286C570.067 212.256 569.896 212.29 569.755 212.383L567.312 214.034C567.175 214.131 567.08 214.277 567.048 214.441C567.015 214.606 567.046 214.777 567.136 214.919L568.648 217.245C568.743 217.384 568.888 217.481 569.052 217.517C569.217 217.552 569.389 217.523 569.532 217.435L572.106 215.816C572.178 215.769 572.24 215.707 572.288 215.636C572.336 215.564 572.37 215.484 572.387 215.399C572.404 215.314 572.404 215.227 572.388 215.143C572.371 215.058 572.337 214.977 572.29 214.906Z" fill="#464A5F"/>
<path d="M567.627 218.136L565.976 215.784C565.879 215.647 565.733 215.554 565.568 215.522C565.404 215.491 565.233 215.523 565.092 215.613L562.65 217.264C562.512 217.361 562.418 217.507 562.385 217.671C562.352 217.836 562.383 218.007 562.473 218.149L563.986 220.475C564.079 220.613 564.222 220.711 564.385 220.747C564.548 220.784 564.719 220.757 564.863 220.671L567.443 219.046C567.515 218.999 567.577 218.937 567.625 218.866C567.674 218.794 567.707 218.714 567.724 218.629C567.741 218.545 567.741 218.457 567.725 218.373C567.708 218.288 567.675 218.207 567.627 218.136Z" fill="#464A5F"/>
<path d="M562.964 221.366L561.294 219.02C561.195 218.883 561.047 218.79 560.881 218.759C560.715 218.729 560.544 218.764 560.403 218.856L558.019 220.494C557.881 220.59 557.785 220.735 557.751 220.9C557.717 221.065 557.747 221.236 557.836 221.379L559.349 223.705C559.443 223.845 559.587 223.944 559.751 223.981C559.916 224.017 560.089 223.989 560.233 223.901L562.813 222.283C562.884 222.233 562.943 222.169 562.989 222.096C563.035 222.023 563.065 221.941 563.079 221.856C563.093 221.77 563.09 221.683 563.07 221.599C563.051 221.515 563.014 221.436 562.964 221.366Z" fill="#464A5F"/>
<path d="M558.294 224.596L556.644 222.244C556.546 222.109 556.399 222.016 556.235 221.986C556.07 221.956 555.9 221.989 555.76 222.08L553.317 223.724C553.18 223.821 553.085 223.967 553.053 224.131C553.02 224.296 553.051 224.467 553.141 224.609L554.653 226.935C554.747 227.073 554.89 227.171 555.053 227.208C555.216 227.244 555.387 227.217 555.531 227.131L558.111 225.513C558.184 225.465 558.247 225.404 558.295 225.332C558.344 225.259 558.378 225.178 558.395 225.093C558.412 225.007 558.412 224.92 558.395 224.834C558.378 224.749 558.343 224.668 558.294 224.596Z" fill="#464A5F"/>
<path d="M553.841 228.121L551.791 225.199C551.769 225.166 551.741 225.138 551.707 225.116C551.674 225.094 551.637 225.08 551.598 225.072C551.559 225.065 551.519 225.065 551.481 225.074C551.442 225.082 551.405 225.097 551.372 225.12L548.373 227.144C548.308 227.188 548.262 227.256 548.246 227.333C548.23 227.411 548.245 227.491 548.288 227.557L550.167 230.453C550.189 230.486 550.217 230.515 550.25 230.537C550.283 230.56 550.32 230.575 550.359 230.583C550.398 230.591 550.438 230.591 550.477 230.583C550.516 230.576 550.553 230.56 550.587 230.538L553.75 228.573C553.788 228.552 553.822 228.522 553.848 228.487C553.874 228.452 553.892 228.411 553.901 228.368C553.909 228.325 553.909 228.28 553.898 228.238C553.888 228.195 553.869 228.155 553.841 228.121Z" fill="#464A5F"/>
<path d="M549.709 230.984L547.659 228.062C547.637 228.029 547.609 228.001 547.577 227.98C547.544 227.958 547.508 227.943 547.469 227.936C547.431 227.929 547.391 227.929 547.353 227.937C547.315 227.945 547.279 227.961 547.246 227.983L544.267 230.001C544.201 230.046 544.155 230.115 544.139 230.193C544.124 230.272 544.139 230.353 544.182 230.42L546.061 233.31C546.105 233.375 546.172 233.42 546.249 233.438C546.326 233.455 546.406 233.442 546.474 233.401L549.643 231.436C549.68 231.413 549.711 231.382 549.735 231.345C549.758 231.309 549.774 231.268 549.78 231.225C549.786 231.182 549.783 231.138 549.771 231.097C549.758 231.055 549.737 231.016 549.709 230.984Z" fill="#464A5F"/>
<path d="M545.085 234.188L543.036 231.259C542.988 231.195 542.918 231.152 542.84 231.139C542.762 231.125 542.682 231.143 542.616 231.187L539.624 233.205C539.558 233.25 539.512 233.319 539.496 233.397C539.48 233.476 539.496 233.557 539.538 233.624L541.418 236.514C541.461 236.58 541.528 236.627 541.605 236.644C541.683 236.661 541.764 236.647 541.831 236.605L545 234.64C545.038 234.618 545.071 234.588 545.097 234.553C545.122 234.517 545.139 234.476 545.148 234.433C545.156 234.39 545.154 234.346 545.144 234.304C545.133 234.261 545.113 234.222 545.085 234.188Z" fill="#464A5F"/>
<path d="M540.606 237.287L538.556 234.364C538.534 234.332 538.505 234.304 538.472 234.282C538.439 234.26 538.402 234.245 538.363 234.238C538.324 234.231 538.284 234.231 538.245 234.24C538.206 234.248 538.17 234.263 538.137 234.286L535.144 236.31C535.111 236.332 535.083 236.359 535.06 236.392C535.038 236.424 535.023 236.46 535.015 236.499C535.007 236.537 535.007 236.577 535.014 236.615C535.022 236.654 535.037 236.691 535.059 236.723L536.939 239.619C536.96 239.652 536.987 239.68 537.02 239.703C537.052 239.725 537.088 239.74 537.127 239.748C537.165 239.756 537.205 239.757 537.243 239.749C537.282 239.741 537.319 239.726 537.351 239.704L540.521 237.739C540.558 237.716 540.59 237.686 540.615 237.651C540.64 237.615 540.657 237.574 540.665 237.532C540.673 237.489 540.672 237.445 540.662 237.403C540.651 237.361 540.632 237.321 540.606 237.287Z" fill="#464A5F"/>
<path d="M539.198 244.828L537.148 241.899C537.101 241.835 537.031 241.792 536.953 241.779C536.875 241.766 536.795 241.783 536.729 241.827L533.73 243.845C533.664 243.89 533.618 243.959 533.602 244.037C533.586 244.116 533.602 244.197 533.644 244.264L535.524 247.154C535.568 247.219 535.635 247.264 535.712 247.282C535.789 247.299 535.869 247.286 535.937 247.245L539.106 245.28C539.146 245.26 539.18 245.231 539.207 245.196C539.234 245.16 539.252 245.119 539.261 245.076C539.27 245.032 539.269 244.988 539.258 244.945C539.247 244.902 539.226 244.862 539.198 244.828Z" fill="#464A5F"/>
<path d="M534.718 247.927L532.669 245.005C532.646 244.972 532.618 244.944 532.585 244.922C532.551 244.901 532.514 244.886 532.475 244.878C532.436 244.871 532.396 244.871 532.358 244.88C532.319 244.888 532.282 244.904 532.25 244.926L529.25 246.95C529.185 246.995 529.139 247.062 529.123 247.139C529.107 247.217 529.122 247.297 529.165 247.363L531.044 250.253C531.066 250.286 531.094 250.316 531.126 250.339C531.159 250.361 531.196 250.378 531.235 250.386C531.274 250.395 531.314 250.395 531.353 250.388C531.393 250.381 531.43 250.366 531.464 250.344L534.627 248.379C534.666 248.359 534.701 248.33 534.727 248.295C534.754 248.259 534.773 248.218 534.782 248.175C534.79 248.131 534.789 248.087 534.778 248.044C534.767 248.001 534.747 247.961 534.718 247.927Z" fill="#464A5F"/>
<path d="M541.746 229.365L539.814 226.607C539.752 226.522 539.659 226.464 539.555 226.445C539.451 226.427 539.344 226.45 539.257 226.509L536.408 228.415C536.32 228.475 536.26 228.567 536.239 228.671C536.218 228.775 536.239 228.883 536.297 228.972L538.065 231.698C538.124 231.787 538.215 231.849 538.319 231.871C538.423 231.893 538.532 231.873 538.622 231.816L541.608 229.935C541.656 229.909 541.698 229.872 541.731 229.828C541.764 229.784 541.788 229.734 541.801 229.681C541.814 229.627 541.816 229.571 541.806 229.517C541.797 229.463 541.776 229.411 541.746 229.365Z" fill="#464A5F"/>
<path d="M537.266 232.464L535.334 229.713C535.304 229.669 535.267 229.632 535.223 229.603C535.178 229.574 535.129 229.554 535.077 229.544C535.026 229.535 534.973 229.535 534.921 229.546C534.87 229.557 534.821 229.578 534.777 229.608L531.948 231.521C531.861 231.58 531.801 231.67 531.78 231.773C531.759 231.876 531.779 231.983 531.837 232.071L533.605 234.797C533.664 234.885 533.755 234.948 533.858 234.971C533.962 234.994 534.071 234.976 534.162 234.921L537.155 233.041C537.2 233.011 537.239 232.972 537.269 232.926C537.299 232.881 537.32 232.83 537.331 232.776C537.341 232.722 537.341 232.667 537.329 232.614C537.318 232.56 537.297 232.509 537.266 232.464Z" fill="#464A5F"/>
<path d="M532.786 235.57L530.822 232.812C530.761 232.727 530.67 232.669 530.567 232.65C530.464 232.632 530.358 232.655 530.272 232.713L527.436 234.62C527.348 234.68 527.288 234.772 527.267 234.876C527.246 234.98 527.267 235.088 527.325 235.177L529.093 237.902C529.152 237.991 529.243 238.053 529.347 238.075C529.451 238.097 529.56 238.078 529.65 238.02L532.642 236.14C532.691 236.114 532.734 236.078 532.767 236.034C532.801 235.99 532.826 235.94 532.839 235.887C532.853 235.833 532.855 235.777 532.846 235.723C532.837 235.668 532.817 235.616 532.786 235.57Z" fill="#464A5F"/>
<path d="M528.373 238.761L526.323 235.832C526.276 235.768 526.206 235.725 526.128 235.712C526.05 235.699 525.969 235.716 525.904 235.76L522.904 237.778C522.84 237.824 522.795 237.894 522.781 237.972C522.766 238.05 522.782 238.131 522.826 238.197L524.705 241.087C524.748 241.153 524.815 241.2 524.893 241.217C524.97 241.234 525.051 241.22 525.118 241.178L528.287 239.213C528.325 239.191 528.358 239.162 528.384 239.126C528.409 239.09 528.427 239.05 528.435 239.006C528.443 238.963 528.441 238.919 528.431 238.877C528.42 238.834 528.4 238.795 528.373 238.761Z" fill="#464A5F"/>
<path d="M581.379 208.537L579.631 206.008C579.531 205.873 579.383 205.78 579.217 205.751C579.051 205.722 578.88 205.758 578.74 205.851L571.772 210.706C571.638 210.803 571.546 210.948 571.514 211.111C571.482 211.274 571.514 211.443 571.602 211.584L573.278 214.165C573.327 214.237 573.388 214.298 573.46 214.346C573.532 214.393 573.612 214.426 573.697 214.443C573.781 214.459 573.868 214.459 573.953 214.441C574.037 214.424 574.117 214.39 574.189 214.342L581.216 209.422C581.351 209.323 581.443 209.177 581.473 209.012C581.504 208.848 581.47 208.678 581.379 208.537Z" fill="#464A5F"/>
<path d="M536.113 240.294L533.939 237.221C533.917 237.188 533.888 237.16 533.855 237.139C533.821 237.117 533.784 237.102 533.745 237.096C533.706 237.089 533.666 237.09 533.627 237.099C533.588 237.109 533.552 237.125 533.52 237.149L526.041 242.39C525.977 242.436 525.933 242.504 525.918 242.581C525.903 242.658 525.919 242.738 525.963 242.803L528.012 245.961C528.034 245.995 528.063 246.025 528.096 246.048C528.13 246.071 528.167 246.086 528.207 246.094C528.247 246.102 528.288 246.102 528.327 246.094C528.367 246.086 528.405 246.07 528.438 246.046L536.041 240.72C536.107 240.672 536.151 240.601 536.164 240.522C536.178 240.442 536.16 240.36 536.113 240.294Z" fill="#464A5F"/>
<path d="M559.906 216.793L557.941 213.877C557.896 213.811 557.827 213.766 557.748 213.75C557.67 213.734 557.589 213.749 557.522 213.792L540.92 224.995C540.887 225.017 540.859 225.044 540.837 225.077C540.814 225.109 540.799 225.145 540.791 225.184C540.783 225.222 540.783 225.262 540.79 225.3C540.798 225.339 540.813 225.376 540.835 225.408L542.878 228.553C542.9 228.587 542.929 228.617 542.962 228.64C542.996 228.662 543.033 228.678 543.073 228.686C543.113 228.694 543.154 228.694 543.193 228.686C543.233 228.678 543.271 228.661 543.304 228.638L559.86 217.212C559.921 217.162 559.96 217.09 559.968 217.012C559.977 216.933 559.954 216.855 559.906 216.793Z" fill="#464A5F"/>
<path opacity="0.1" d="M559.984 206.781L551.156 193.946C550.912 193.59 550.537 193.344 550.112 193.263C549.688 193.182 549.249 193.272 548.89 193.514L524.574 209.848C524.395 209.969 524.242 210.124 524.123 210.305C524.004 210.485 523.921 210.687 523.881 210.9C523.84 211.112 523.841 211.331 523.885 211.542C523.929 211.754 524.014 211.955 524.135 212.134L533.134 225.336C533.255 225.515 533.41 225.669 533.591 225.788C533.771 225.907 533.974 225.989 534.186 226.029C534.399 226.069 534.617 226.067 534.829 226.022C535.04 225.977 535.241 225.891 535.419 225.769L559.565 209.055C559.742 208.933 559.893 208.778 560.01 208.598C560.127 208.418 560.208 208.216 560.246 208.005C560.285 207.794 560.282 207.577 560.237 207.367C560.192 207.157 560.106 206.958 559.984 206.781Z" fill="black"/>
<path d="M560.39 206.86L551.562 194.025C551.317 193.67 550.942 193.425 550.518 193.344C550.094 193.264 549.655 193.353 549.296 193.593L525.013 209.939C524.833 210.059 524.678 210.214 524.558 210.394C524.438 210.575 524.355 210.777 524.313 210.99C524.272 211.202 524.273 211.421 524.317 211.633C524.36 211.846 524.446 212.047 524.568 212.226L533.54 225.415C533.661 225.594 533.816 225.748 533.997 225.867C534.177 225.985 534.38 226.067 534.592 226.108C534.805 226.148 535.023 226.145 535.235 226.101C535.446 226.056 535.647 225.97 535.825 225.847L559.984 209.133C560.16 209.011 560.31 208.855 560.426 208.674C560.542 208.494 560.621 208.292 560.658 208.081C560.696 207.87 560.692 207.653 560.646 207.444C560.6 207.234 560.513 207.036 560.39 206.86Z" fill="#939498"/>
<path d="M615.133 227.603L596.403 221.353L536.329 263.101L554.922 269.161C555.423 269.325 555.956 269.37 556.477 269.292C556.999 269.215 557.495 269.018 557.928 268.716L615.303 228.802C615.414 228.736 615.504 228.639 615.56 228.522C615.616 228.405 615.637 228.274 615.618 228.146C615.6 228.017 615.544 227.897 615.458 227.801C615.371 227.704 615.258 227.635 615.133 227.603Z" fill="#FF0000"/>
</g>
<defs>
<clipPath id="clip0">
<rect width="710" height="497" fill="white"/>
</clipPath>
</defs>
</svg>
