<svg width="671" height="857" viewBox="0 0 671 857" fill="none" xmlns="http://www.w3.org/2000/svg">
<path d="M662.622 432.907C662.622 666.663 522.184 856.16 348.945 856.16C175.706 856.16 -97.6676 582.797 35.2681 432.907C169.055 282.057 240.907 50.059 348.945 9.65438C515.89 -52.7808 662.622 199.151 662.622 432.907Z" fill="#EF0F0F" fill-opacity="0.05"/>
<path d="M528.15 600.318C566.002 600.318 596.686 592.002 596.686 581.744C596.686 571.485 566.002 563.169 528.15 563.169C490.299 563.169 459.614 571.485 459.614 581.744C459.614 592.002 490.299 600.318 528.15 600.318Z" stroke="#444053" stroke-miterlimit="10"/>
<path d="M269.514 433.782C269.715 434.471 269.943 435.145 270.196 435.802V435.887C270.196 435.887 273.442 452.07 274.962 455.468C275.404 456.451 275.903 457.519 276.396 458.563C276.299 459.332 276.299 460.117 276.396 460.885C276.855 464.492 277.411 469.453 277.159 470.544C276.906 471.635 277.463 474.352 276.585 475.296C275.708 476.24 274.807 477.881 277.497 480.056C277.497 480.056 278.002 481.89 277.549 482.3C277.497 482.346 277.549 482.447 277.675 482.579C276.935 485.535 275.851 490.318 276.528 490.659C276.901 490.852 277.91 490.14 279.017 489.18C279.046 489.374 279.069 489.583 279.097 489.792C279.273 491.385 279.546 492.956 279.912 494.49C280.405 495.968 280.898 498.46 280.634 499.28C280.371 500.101 281.357 501.927 281.128 502.647C280.898 503.367 281.89 505.704 281.89 505.704C281.89 505.704 282.877 510.239 282.837 511.772C282.797 513.304 283.903 523.187 283.903 523.187C283.903 523.187 282.756 528.288 283.33 529.766C283.903 531.244 284.276 536.344 283.33 538.233C282.384 540.121 281.196 544.293 281.581 545.415C281.965 546.537 281.047 560.406 283.364 566.118C283.661 568.243 283.877 570.387 284.012 572.541C284.012 574.089 285.836 578.199 285.836 578.199C285.836 578.199 284.735 584.39 287.436 585.435C287.623 585.514 287.815 585.563 288.01 585.582C288.092 586.259 288.024 586.954 287.815 587.579C287.353 588.441 287.025 589.421 286.851 590.458C286.812 590.653 286.83 590.862 286.903 591.038C287.207 591.495 288.05 597.617 288.05 597.617C288.05 597.617 289.266 604.497 295.959 602.818C295.959 602.818 300.484 602.462 300.105 600.318C299.981 599.61 299.816 598.917 299.612 598.244C299.453 597.808 299.311 597.361 299.188 596.905C299.113 596.394 298.161 594.962 298.087 593.995C298.012 593.028 297.404 591.139 297.513 590.528C297.622 589.916 296.487 585.536 296.406 584.561C296.313 583.882 296.169 583.218 295.976 582.579L296.217 582.425C296.217 582.425 296.825 577.835 296.297 576.156C295.77 574.476 293.671 572.286 293.671 572.286C293.671 572.286 293.974 561.017 293.596 559.485C293.217 557.953 293.785 552.148 293.785 552.148C293.785 552.148 295.076 543.937 295.001 542.087C294.958 540.942 295.087 539.797 295.38 538.72C295.38 538.72 296.183 526.639 296.71 525.107C297.238 523.574 297.857 508.591 297.857 508.591L298.213 509.968C298.713 512.036 299.306 514.06 299.991 516.028C300.283 516.647 301.138 518.629 301.872 520.285L302.956 522.762C302.956 522.762 303.449 525.161 303.105 526.631C302.761 528.102 306.644 536.058 306.644 536.058C306.394 536.722 306.264 537.457 306.265 538.202C306.374 538.976 305.084 541.414 305.084 541.414C305.084 541.414 304.59 543.604 304.894 544.37C305.198 545.136 304.401 549.671 304.401 549.671C304.401 549.671 303.105 559.663 302.801 560.839C302.497 562.016 302.956 570.065 302.956 570.065C302.956 570.065 300.57 578.307 301.677 581.047C301.723 582.061 301.729 583.609 301.436 584.236C301.04 585.071 301.155 588.159 301.195 589.011C301.195 589.158 301.195 589.235 301.195 589.235C301.195 589.235 299.899 591.557 301.534 592.501C303.168 593.445 308.726 594.127 308.726 594.127C308.726 594.127 314.008 596.17 316.554 596.727C319.101 597.284 324.429 597.083 324.807 594.993C324.942 594.344 324.989 593.668 324.945 592.997C324.911 592.573 324.796 592.167 324.612 591.82C324.428 591.473 324.181 591.196 323.895 591.015C322.329 590.175 320.728 589.459 319.101 588.871C319.101 588.871 316.589 588.098 316.359 586.627C316.13 585.157 312.557 581.07 312.557 581.07C312.557 581.07 312.517 580.784 312.442 580.397H312.557L312.385 580.165C312.207 579.391 311.92 578.369 311.57 578.563C311.516 578.424 311.482 578.272 311.472 578.116C311.462 577.959 311.476 577.802 311.513 577.653C311.549 577.504 311.607 577.366 311.684 577.249C311.761 577.131 311.855 577.036 311.96 576.968C313.331 575.954 314.168 572.743 313.784 569.275C313.4 565.808 313.331 566.419 314.128 564.43C314.623 562.927 314.82 561.277 314.702 559.64L316.806 549.052C317.136 547.752 317.341 546.399 317.414 545.028C317.45 543.949 317.657 542.893 318.022 541.932C318.022 541.932 318.974 534.587 319.812 532.908C320.649 531.229 319.238 525.308 319.238 525.308C319.238 525.308 317.948 516.137 318.022 511.95C318.097 507.763 314.673 493.244 314.673 493.244C314.234 492.301 314.047 491.184 314.145 490.078C314.214 489.211 313.813 487.803 313.36 486.541L313.216 486.147C313.391 485.843 313.602 485.582 313.841 485.373C314.782 484.599 315.224 482.563 315.229 481.131L302.262 439.888C302.262 439.764 308.267 423.21 308.249 423.086C307.894 420.369 304.499 413.164 304.499 413.164C304.466 413.074 304.417 412.996 304.355 412.94C303.592 412.468 301.012 410.494 301.012 410.494C298.987 407.12 297.089 406.423 295.85 406.446C295.46 406.44 295.073 406.521 294.703 406.686C294.571 406.742 294.442 406.811 294.319 406.895L294.261 407.569C294.156 406.011 294.247 404.441 294.531 402.925C294.559 402.793 294.588 402.654 294.611 402.522C294.8 402.522 294.99 402.522 295.185 402.522C296.399 402.528 297.602 402.21 298.725 401.588C299.848 400.965 300.869 400.051 301.73 398.896C302.592 397.741 303.276 396.368 303.744 394.857C304.212 393.345 304.455 391.724 304.459 390.085C304.458 388.921 304.339 387.762 304.103 386.641L304.057 386.463L304.344 386.293C305.491 385.72 306.93 386.695 307.86 385.658C308.196 385.208 308.438 384.644 308.559 384.025C308.817 383.197 308.988 382.324 309.07 381.433C309.07 381.278 309.07 381.123 309.07 380.968C309.072 380.922 309.072 380.875 309.07 380.829C309.072 380.772 309.072 380.715 309.07 380.659C309.07 380.589 309.07 380.519 309.07 380.45C309.07 380.38 309.07 380.45 309.07 380.45C309.018 379.881 308.847 379.344 308.576 378.902C307.968 377.942 306.953 377.71 306.185 377.006C305.557 376.349 305.035 375.524 304.654 374.583C304.271 373.648 303.768 372.812 303.168 372.114C302.863 371.769 302.494 371.542 302.101 371.459C301.708 371.376 301.306 371.439 300.937 371.642C300.713 371.85 300.465 372.006 300.203 372.107C299.918 372.112 299.638 372.01 299.394 371.813C296.756 370.149 293.659 370.443 290.791 370.938C289.626 371.063 288.482 371.434 287.402 372.037C286.862 372.337 286.377 372.792 285.981 373.371C285.584 373.95 285.287 374.638 285.108 375.388C284.873 376.588 285.05 377.888 284.769 379.072C284.574 379.846 284.196 380.558 283.955 381.34C283.838 381.749 283.765 382.179 283.737 382.617C283.737 382.617 283.737 382.702 283.737 382.741C283.64 384.497 284.15 386.347 284.397 388.158C284.735 390.627 284.563 393.313 285.349 395.65C285.427 395.936 285.527 396.211 285.647 396.47C285.372 397.244 285.073 398.065 284.787 398.831C284.362 398.668 283.066 398.281 283.02 399.814C283.011 401.059 282.796 402.286 282.389 403.405C282.329 403.469 282.266 403.529 282.2 403.583C282.13 403.626 282.072 403.698 282.034 403.788C281.996 403.878 281.98 403.982 281.988 404.086L281.839 404.241C281.773 404.246 281.71 404.276 281.655 404.326C281.575 404.14 281.311 404.124 280.474 405.471C279.359 407.035 278.078 408.366 276.671 409.418C276.671 409.418 271.039 414.72 270.735 417.158C270.431 419.596 268.55 430.245 269.514 433.782ZM294.244 407.917C294.244 407.917 294.244 407.863 294.244 407.832L294.313 407.878L294.244 407.917ZM309.546 581.279C309.393 581.366 309.229 581.411 309.064 581.411L309.546 581.279Z" fill="url(#paint0_linear)"/>
<path d="M296.578 602.841C289.966 604.513 288.761 597.671 288.761 597.671C288.761 597.671 287.935 591.588 287.614 591.131C287.541 590.954 287.523 590.746 287.563 590.551C287.735 589.52 288.059 588.547 288.515 587.687C288.928 587.029 288.589 584.29 288.589 584.29L296.251 581.658C296.579 582.634 296.831 583.654 297.003 584.7C297.083 585.66 298.207 590.025 298.092 590.628C297.978 591.232 298.586 593.113 298.666 594.08C298.746 595.047 299.681 596.464 299.756 596.967C299.871 597.425 300.009 597.872 300.169 598.306C300.373 598.973 300.536 599.661 300.656 600.364C301.046 602.485 296.578 602.841 296.578 602.841Z" fill="#444053"/>
<path opacity="0.1" d="M296.578 602.841C289.966 604.513 288.761 597.671 288.761 597.671C288.761 597.671 287.935 591.588 287.614 591.131C287.541 590.955 287.523 590.746 287.563 590.551L289.151 596.742C289.151 596.742 290.47 600.45 295.351 599.885C298.133 599.575 299.498 598.879 300.163 598.337C300.367 599.004 300.53 599.692 300.65 600.395C301.046 602.485 296.578 602.841 296.578 602.841Z" fill="black"/>
<path opacity="0.1" d="M291.428 593.206C291.428 593.206 293.086 593.26 293.195 591.433L291.428 593.206Z" fill="black"/>
<path d="M320.173 533.279C319.347 534.951 318.407 542.249 318.407 542.249C318.057 543.216 317.862 544.27 317.833 545.345C317.772 546.71 317.579 548.057 317.26 549.354L315.086 559.849C315.201 561.476 315.004 563.115 314.512 564.609C313.727 566.59 313.801 565.978 314.174 569.43C314.547 572.882 313.727 576.071 312.373 577.084C311.02 578.098 312.975 580.482 312.975 580.482C312.975 580.482 304.332 583.624 302.526 581.697C300.719 579.77 303.466 570.243 303.466 570.243C303.466 570.243 303.019 562.233 303.317 561.064C303.615 559.895 304.894 549.958 304.894 549.958C304.894 549.958 305.686 545.446 305.382 544.687C305.078 543.929 305.571 541.746 305.571 541.746C305.571 541.746 306.85 539.308 306.718 538.55C306.72 537.811 306.85 537.082 307.097 536.422C307.097 536.422 303.266 528.512 303.598 527.042C303.931 525.571 303.449 523.172 303.449 523.172C303.449 523.172 302.967 522.05 302.382 520.711C301.671 519.062 300.811 517.096 300.518 516.477C299.847 514.519 299.263 512.508 298.769 510.456L298.414 509.078C298.414 509.078 297.84 523.984 297.267 525.501C296.693 527.018 295.953 539.045 295.953 539.045C295.661 540.114 295.532 541.251 295.575 542.389C295.649 544.262 294.37 552.45 294.37 552.45C294.37 552.45 293.797 558.231 294.187 559.756C294.577 561.281 294.261 572.479 294.261 572.479C294.261 572.479 296.326 574.662 296.854 576.349C297.381 578.036 296.779 582.587 296.779 582.587C296.779 582.587 290.769 586.643 288.096 585.575C285.423 584.506 286.519 578.377 286.519 578.377C286.519 578.377 284.718 574.321 284.718 572.75C284.584 570.606 284.37 568.472 284.075 566.358C281.781 560.677 282.688 546.893 282.315 545.771C281.942 544.649 283.1 540.5 284.035 538.627C284.97 536.754 284.609 531.662 284.035 530.207C283.462 528.752 284.609 523.667 284.609 523.667C284.609 523.667 283.519 513.83 283.559 512.313C283.599 510.797 282.619 506.277 282.619 506.277C282.619 506.277 281.644 503.955 281.867 503.235C282.091 502.515 281.116 500.697 281.38 499.892C281.644 499.087 281.151 496.595 280.663 495.124C280.306 493.607 280.038 492.054 279.86 490.481C279.631 488.732 279.464 487.191 279.464 487.191L285.664 480.45L301.149 474.971L307.022 472.394L312.694 484.459C312.694 484.459 313.268 485.721 313.801 487.176C314.249 488.43 314.644 489.831 314.576 490.697C314.481 491.795 314.667 492.904 315.103 493.84C315.103 493.84 318.481 508.289 318.407 512.414C318.332 516.539 319.611 525.703 319.611 525.703C319.611 525.703 320.999 531.608 320.173 533.279Z" fill="#3F3D56"/>
<path opacity="0.1" d="M285.383 540.833C285.383 540.833 291.996 537.033 293.946 539.719C295.896 542.404 285.383 540.833 285.383 540.833Z" fill="black"/>
<path opacity="0.1" d="M289.1 542.35C289.1 542.35 282.395 547.466 284.689 548.286C286.983 549.107 289.1 542.35 289.1 542.35Z" fill="black"/>
<path opacity="0.1" d="M309.087 537.946C309.087 537.946 306.219 538.194 307.32 538.961C308.422 539.728 309.087 537.946 309.087 537.946Z" fill="black"/>
<path opacity="0.1" d="M312.66 539.107C312.62 539.363 304.355 542.977 305.973 544.587C307.59 546.197 312.66 539.107 312.66 539.107Z" fill="black"/>
<path opacity="0.1" d="M286.358 570.134C287.597 569.887 294.514 565.576 291.807 568.672C291.082 569.56 290.193 570.165 289.233 570.423C288.273 570.681 287.279 570.581 286.358 570.134Z" fill="black"/>
<path opacity="0.1" d="M289.776 573.532C289.776 573.532 290.379 576.682 292.673 576.272C294.967 575.862 289.776 573.532 289.776 573.532Z" fill="black"/>
<path opacity="0.1" d="M287.861 579.925C288.274 579.77 293.195 576.728 293.309 578.152C293.424 579.577 288.612 582.022 288.239 581.295C288.023 580.893 287.892 580.419 287.861 579.925Z" fill="black"/>
<path opacity="0.1" d="M303.793 576.273C304.367 576.226 310.027 573.787 311.157 575.971L303.793 576.273Z" fill="black"/>
<path opacity="0.1" d="M308.903 577.696C308.903 577.696 309.878 576.527 310.853 577.139C311.828 577.751 308.903 577.696 308.903 577.696Z" fill="black"/>
<path opacity="0.1" d="M296.429 590.265C296.49 590.696 296.643 591.095 296.869 591.411C297.095 591.727 297.385 591.947 297.702 592.045L296.429 590.265Z" fill="black"/>
<path d="M325.094 595.032C324.721 597.114 319.456 597.315 316.944 596.758C314.432 596.201 309.202 594.173 309.202 594.173C309.202 594.173 303.719 593.461 302.101 592.548C300.484 591.635 301.763 589.305 301.763 589.305C301.763 589.305 301.763 589.228 301.763 589.088C301.723 588.237 301.614 585.164 301.998 584.336C302.451 583.369 302.187 580.227 302.187 580.227C302.187 580.227 309.964 582.254 310.114 581.295C310.263 580.335 311.467 578.973 312.029 578.656C312.591 578.338 313.01 581.194 313.01 581.194C313.01 581.194 316.543 585.25 316.766 586.72C316.99 588.19 319.468 588.949 319.468 588.949C321.077 589.531 322.659 590.242 324.205 591.077C324.489 591.257 324.733 591.532 324.915 591.877C325.097 592.221 325.21 592.623 325.243 593.043C325.283 593.713 325.233 594.387 325.094 595.032Z" fill="#444053"/>
<path opacity="0.1" d="M325.094 595.032C324.721 597.114 319.456 597.315 316.944 596.758C314.432 596.201 309.202 594.173 309.202 594.173C309.202 594.173 303.719 593.461 302.101 592.548C300.484 591.634 301.763 589.305 301.763 589.305C301.763 589.305 301.763 589.228 301.763 589.088L309.626 591.41C309.626 591.41 313.497 593.639 315.975 593.639C318.143 593.639 322.989 594.839 325.243 593.02C325.286 593.697 325.235 594.379 325.094 595.032Z" fill="black"/>
<path opacity="0.1" d="M314.461 587.022C314.461 587.022 314.088 590.365 312.585 591.488L314.461 587.022Z" fill="black"/>
<path d="M338.543 463.78C336.306 464.925 331.145 465.049 328.851 465.049C328.151 465.049 327.703 465.049 327.703 465.049L326.229 460.993L327.703 457.611C327.703 457.611 329.057 457.108 330.858 456.667C333.513 456.025 337.167 455.522 338.887 456.969C341.778 459.391 341.468 462.332 338.543 463.78Z" fill="#A1616A"/>
<path d="M304.378 415.246L305.032 414.232C305.032 414.232 308.387 421.399 308.737 424.1C309.087 426.801 309.54 429.912 309.54 429.912C309.54 429.912 310.389 433.426 310.945 434.981C311.419 436.16 311.788 437.409 312.046 438.704C312.092 439.377 311.846 440.863 312.895 441.8C313.945 442.736 314.197 445.314 314.197 445.314C314.197 445.314 318.005 450.313 320.013 450.453C322.02 450.592 327.772 451.938 327.577 453.285C327.382 454.632 329.98 455.452 331.018 455.793C332.057 456.133 324.262 460.196 328.851 465.428C328.851 465.428 325.943 466.202 325.645 467.185C325.346 468.168 322.289 466.643 322.289 466.643C322.289 466.643 321.636 464.546 319.382 464.414C317.128 464.283 315.975 462.928 315.975 462.727C315.975 462.526 313.721 460.831 312.471 460.359C311.22 459.887 309.563 459.686 309.511 459.206C309.46 458.726 301.998 415.269 301.998 415.269L304.378 415.246Z" fill="#FF0000"/>
<path opacity="0.05" d="M304.378 415.416L305.032 414.402C305.032 414.402 308.387 421.569 308.737 424.278C309.087 426.987 309.54 430.09 309.54 430.09C309.54 430.09 310.389 433.604 310.945 435.159C311.418 436.336 311.787 437.583 312.046 438.874C312.092 439.555 311.846 441.041 312.895 441.97C313.945 442.899 314.197 445.484 314.197 445.484C314.197 445.484 318.005 450.491 320.013 450.623C322.02 450.754 327.772 452.109 327.577 453.463C327.382 454.817 329.98 455.63 331.018 455.963C332.057 456.296 324.262 460.374 328.851 465.583C328.851 465.583 325.943 466.357 325.645 467.34C325.346 468.323 322.289 466.798 322.289 466.798C322.289 466.798 321.636 464.701 319.382 464.569C317.128 464.438 315.975 463.083 315.975 462.874C315.975 462.665 313.721 460.986 312.471 460.514C311.22 460.042 309.563 459.833 309.511 459.36C309.46 458.888 301.998 415.416 301.998 415.416H304.378Z" fill="black"/>
<path d="M381.041 599.15C418.894 599.15 449.577 607.469 449.577 617.724C449.577 627.979 418.894 636.299 381.041 636.299C343.189 636.299 312.505 627.987 312.505 617.724" stroke="#444053" stroke-miterlimit="10"/>
<path d="M366.957 216.357L357.294 214.145L345.102 311.103L354.766 313.316L366.957 216.357Z" fill="#444053"/>
<path d="M378.369 605.488L380.514 626.152L382.349 604.668L378.369 605.488Z" fill="#D0D2D5"/>
<path d="M309.465 593.918V606.734L311.61 617.887H313.142L314.983 605.906L315.9 591.441L309.465 593.918Z" fill="#3F3D56"/>
<path d="M305.101 543.921L309.689 545.159C309.689 545.159 304.487 564.578 308.158 568.711H302.348C302.348 568.711 300.203 553.835 305.101 543.921Z" fill="#D0D2D5"/>
<path opacity="0.1" d="M305.101 543.921L309.689 545.159C309.689 545.159 304.487 564.578 308.158 568.711H302.348C302.348 568.711 300.203 553.835 305.101 543.921Z" fill="black"/>
<path d="M335.802 310.447L321.102 436.065C321.102 436.065 299.366 569.956 307.63 596.402H318.045L349.279 339.377L335.802 310.447Z" fill="#D0D2D5"/>
<path d="M373.081 294.844L384.35 421.105C384.35 421.105 392.558 581.952 383.57 607.965H374.692L358.829 323.085L373.081 294.844Z" fill="#D0D2D5"/>
<path d="M334.431 264.552C335.187 261.123 336.762 258.126 338.909 256.027C341.057 253.928 343.658 252.844 346.309 252.943C355.376 253.253 369.393 255.482 376.705 265.589C388.038 281.293 369.049 334.184 369.049 334.184C369.049 334.184 351.27 378.399 335.062 322.203C335.039 322.25 328.317 292.159 334.431 264.552Z" fill="#444053"/>
<path opacity="0.1" d="M334.431 264.552C335.187 261.123 336.762 258.126 338.909 256.027C341.057 253.928 343.658 252.844 346.309 252.943C355.376 253.253 369.393 255.482 376.705 265.589C388.038 281.293 369.049 334.184 369.049 334.184C369.049 334.184 351.27 378.399 335.062 322.203C335.039 322.25 328.317 292.159 334.431 264.552Z" fill="black"/>
<path d="M340.665 275.295C341.21 272.858 342.333 270.731 343.862 269.241C345.39 267.75 347.239 266.978 349.125 267.044C355.577 267.269 365.556 268.855 370.747 276.053C378.816 287.229 365.298 324.889 365.298 324.889C365.298 324.889 352.68 356.365 341.095 316.375C341.095 316.352 336.306 294.953 340.665 275.295Z" fill="#444053"/>
<path d="M372.054 597.091C372.152 599.087 372.381 601.185 373.316 602.748C374.864 605.333 377.68 605.534 380.089 606.347C381.939 607.061 383.733 608.015 385.446 609.195L390.659 612.523C389.322 612.627 388.004 612.997 386.748 613.622C386.077 613.955 385.343 614.504 385.245 615.448C385.232 615.842 385.308 616.232 385.463 616.566C385.618 616.9 385.844 617.164 386.111 617.321C386.656 617.624 387.243 617.764 387.832 617.731C390.937 617.849 394.044 617.629 397.123 617.074L397.49 617.004C399.073 618.062 400.648 619.143 402.216 620.247C402.87 620.711 403.655 620.247 404.206 619.597C404.878 618.794 405.472 617.878 405.972 616.872C406.064 617.089 406.156 617.298 406.23 617.507C406.735 618.815 407.211 620.525 406.488 621.64C405.915 622.507 404.831 622.654 404.504 623.706C404.415 624.087 404.419 624.496 404.515 624.874C404.611 625.251 404.794 625.577 405.037 625.804C405.536 626.248 406.111 626.514 406.706 626.578C408.125 626.841 409.564 626.825 410.979 626.531C411.746 626.459 412.473 626.042 413.044 625.347C413.532 624.451 413.79 623.364 413.778 622.251L414.759 607.214C414.848 606.5 414.809 605.767 414.644 605.078C414.254 603.801 413.124 603.267 412.103 603.042H411.994C412.843 603.042 413.715 602.988 414.633 602.988C415.432 603.057 416.234 602.921 416.995 602.586C418.452 601.812 419.238 599.745 419.863 597.841C421.01 594.498 422.329 590.876 422.157 587.161L421.71 586.89C421.67 582.935 420.442 579.244 419.989 575.382C420.487 574.344 420.752 573.135 420.752 571.899C420.693 570.54 420.474 569.203 420.104 567.936C418.286 560.646 416.468 553.332 414.036 546.367C412.463 541.728 410.541 537.319 408.301 533.21C407.716 532.178 407.108 531.146 406.477 530.114C406.018 529.402 404.992 528.396 404.802 527.49C404.613 526.585 405.015 525.703 404.802 524.774C404.748 524.532 404.679 524.296 404.596 524.07C405.938 521.67 405.559 518.203 405.089 515.216L404.516 511.493C404.393 510.466 404.153 509.472 403.804 508.544C403.435 507.749 402.972 507.041 402.434 506.447C399.612 503.011 396.125 500.728 392.953 497.879C389.598 494.869 386.599 491.208 383.593 487.594C382.676 486.495 381.523 485.311 380.336 485.775C379.149 486.239 378.655 487.973 378.615 489.552C378.604 490.647 378.765 491.732 379.086 492.738C379.407 493.743 379.882 494.646 380.479 495.387C382.555 497.949 385.693 498.158 388.164 499.969C389.014 500.635 389.821 501.393 390.579 502.237L397.759 509.845C398.304 510.284 398.704 510.987 398.878 511.81C398.906 512.307 398.847 512.805 398.706 513.265C398.436 514.38 397.977 515.781 397.639 517.197L397.065 516.64C395.877 515.441 394.603 514.404 393.263 513.544C391.486 512.564 389.608 511.956 387.694 511.741C383.456 511.098 379.665 511.981 377.072 516.756C376.535 517.847 375.853 518.794 375.059 519.55C374.472 519.919 373.922 520.39 373.425 520.951C372.094 522.94 372.851 526.237 374.102 527.916C375.16 529.243 376.463 530.16 377.875 530.571C378.654 532.914 380.043 534.789 381.78 535.84C383.516 536.89 385.478 537.042 387.293 536.267C387.382 537.263 387.399 538.269 387.344 539.27C387.317 539.785 387.375 540.302 387.515 540.783C387.655 541.263 387.873 541.696 388.153 542.048C388.455 542.325 388.788 542.534 389.139 542.667C390.408 543.287 391.61 544.133 392.712 545.183C391.417 547.076 390.349 549.23 389.547 551.568C389.053 553.119 388.848 554.81 388.948 556.493C389.047 558.176 389.45 559.801 390.12 561.226L390.155 561.288C390.058 561.771 389.879 562.216 389.633 562.588C389.283 562.957 388.841 563.129 388.4 563.068C387.959 563.007 387.552 562.719 387.264 562.263C386.772 561.478 386.356 560.612 386.025 559.686C385.458 558.435 384.708 557.354 383.82 556.507C382.933 555.661 381.927 555.068 380.863 554.764C380.078 554.493 379.25 554.538 378.483 554.895C378.106 555.078 377.776 555.402 377.531 555.83C377.286 556.258 377.137 556.772 377.101 557.31C377.101 558.479 377.732 559.446 378.351 560.274C380.252 562.934 382.368 565.297 384.66 567.317C385.285 567.839 385.93 568.314 386.593 568.741C385.446 568.416 384.314 568.099 383.198 567.789C381.633 567.263 380.017 567.072 378.409 567.224C377.607 567.309 376.829 567.637 376.134 568.184C375.439 568.73 374.844 569.482 374.394 570.382C373.762 572.002 373.628 573.893 374.021 575.645C374.419 577.382 375.013 579.027 375.782 580.521C376.989 583.258 378.469 585.758 380.181 587.95C378.747 588.531 377.313 589.165 375.914 589.862C374.515 590.559 373.046 591.41 372.404 593.144C372.027 594.393 371.906 595.756 372.054 597.091ZM393.166 570.777H393.217C393.522 570.59 393.782 570.293 393.968 569.918C394.84 568.344 395.458 566.54 395.781 564.624C396.114 564.563 396.441 564.452 396.756 564.291C396.541 564.566 396.371 564.898 396.254 565.265C396.138 565.632 396.078 566.028 396.079 566.427L399.314 568.563C399.547 568.682 399.748 568.896 399.887 569.175C399.976 569.463 399.998 569.782 399.95 570.088C399.859 571.086 399.715 572.085 399.623 573.075C398.654 572.688 397.702 572.379 396.848 572.069C395.632 571.62 394.399 571.202 393.166 570.784V570.777Z" fill="url(#paint1_linear)"/>
<path d="M393.768 529.665C394.581 529.94 395.428 529.989 396.256 529.809C397.084 529.63 397.876 529.225 398.585 528.62C398.869 528.352 399.185 528.153 399.52 528.032C399.817 527.997 400.116 528.056 400.393 528.205C400.67 528.355 400.917 528.59 401.115 528.891C402.491 530.741 402.652 533.79 401.94 536.228C401.229 538.666 399.801 540.585 398.304 542.249C397.095 543.593 395.817 544.819 394.479 545.918C394.11 544.752 393.574 543.697 392.9 542.813C392.227 541.93 391.43 541.236 390.556 540.771C388.985 539.951 387.837 537.753 386.937 535.833C386.266 534.409 385.67 534.471 386.272 533.001C386.952 531.589 387.752 530.29 388.658 529.131C389.151 528.427 389.582 527.647 389.942 526.809C390.344 525.834 390.252 525.199 390.871 525.973C391.279 526.484 391.445 527.591 391.915 528.187C392.437 528.871 393.072 529.378 393.768 529.665Z" fill="#FABDBD"/>
<path d="M398.694 514.573C398.828 514.119 398.885 513.63 398.861 513.142C398.689 512.332 398.298 511.638 397.765 511.199L390.751 503.692C390.015 502.859 389.228 502.111 388.4 501.455C385.979 499.667 382.922 499.458 380.892 496.935C380.308 496.198 379.845 495.304 379.531 494.311C379.217 493.319 379.059 492.249 379.068 491.169C379.068 489.622 379.642 487.873 380.726 487.439C381.81 487.006 383.02 488.151 383.915 489.242C386.845 492.803 389.77 496.417 393.045 499.389C396.142 502.206 399.555 504.45 402.313 507.848C402.816 508.426 403.248 509.107 403.592 509.868C403.929 510.789 404.163 511.772 404.286 512.786L404.86 516.454C405.341 519.55 405.731 523.149 404.189 525.525C403.964 525.905 403.68 526.214 403.357 526.43C403.034 526.645 402.679 526.762 402.319 526.771C401.81 526.687 401.32 526.46 400.879 526.105C399.732 525.331 397.656 524.557 397.306 522.622C396.859 520.2 398.149 516.818 398.694 514.573Z" fill="#FABDBD"/>
<path d="M387.505 562.944C387.026 562.168 386.62 561.316 386.295 560.406C385.745 559.175 385.015 558.109 384.149 557.273C383.283 556.437 382.3 555.85 381.259 555.546C380.502 555.287 379.705 555.33 378.965 555.669C378.595 555.853 378.271 556.176 378.033 556.6C377.794 557.024 377.65 557.53 377.617 558.061C377.617 559.206 378.231 560.166 378.833 560.979C380.688 563.608 382.759 565.945 385.004 567.944C387.253 569.934 389.833 571.141 392.512 571.458C392.782 571.502 393.056 571.468 393.315 571.357C393.612 571.172 393.866 570.88 394.049 570.514C395.471 568.052 395.964 564.856 396.343 561.784C396.205 562.89 391.588 560.305 391.066 560.638C390.298 561.126 390.372 562.581 389.816 563.277C389.476 563.642 389.042 563.811 388.61 563.749C388.178 563.687 387.781 563.398 387.505 562.944Z" fill="#FABDBD"/>
<path d="M421.142 587.261C421.168 587.649 421.113 588.038 420.981 588.384C420.666 589.049 419.955 589.057 419.376 588.941C418.038 588.636 416.718 588.207 415.424 587.656L403.65 583.067C403.462 583.018 403.288 582.903 403.145 582.734C403.02 582.536 402.939 582.294 402.91 582.037C402.501 579.758 402.413 577.395 402.652 575.072C402.666 574.737 402.747 574.413 402.887 574.136C403.152 573.806 403.501 573.628 403.862 573.64C405.706 573.388 407.56 573.274 409.413 573.3C410.616 573.368 411.821 573.332 413.021 573.191C414.569 572.944 416.353 571.744 417.907 571.93C419.255 572.085 419.198 573.478 419.335 575.026C419.72 579.135 421.113 583.067 421.142 587.261Z" fill="#FABDBD"/>
<path d="M383.548 568.401C382.02 567.875 380.44 567.684 378.868 567.836C378.084 567.919 377.324 568.241 376.646 568.777C375.967 569.314 375.388 570.05 374.95 570.932C374.326 572.533 374.194 574.401 374.583 576.132C374.977 577.841 375.557 579.461 376.304 580.939C377.627 584.026 379.327 586.79 381.334 589.111C382.337 590.187 383.444 591.077 384.408 592.207C386.461 594.63 387.734 598.012 388.956 601.301C390.103 604.397 391.25 607.554 391.743 610.96C391.747 611.091 391.771 611.22 391.814 611.338C391.856 611.457 391.916 611.562 391.99 611.648C392.149 611.753 392.332 611.769 392.5 611.695L398.149 610.286C398.309 610.295 398.468 610.246 398.608 610.143C398.749 610.04 398.866 609.887 398.947 609.701C399.029 609.515 399.071 609.303 399.07 609.087C399.069 608.871 399.024 608.66 398.941 608.475C397.715 601.367 395.422 594.674 392.202 588.81C393.698 590.717 395.51 592.116 397.487 592.888C399.464 593.661 401.549 593.786 403.569 593.252C404.359 593.101 405.104 592.665 405.726 591.99C406.987 590.443 406.93 587.803 406.649 585.551C406.396 583.544 406.048 581.561 405.605 579.615C404.544 574.971 399.968 573.718 396.865 572.588C392.46 571.014 388.021 569.618 383.548 568.401Z" fill="#3F3D56"/>
<path opacity="0.1" d="M387.729 584.855C388.535 585.285 389.266 585.939 389.874 586.774C388.858 585.226 385.956 584.452 384.534 583.733C382.773 582.85 380.852 581.945 379.372 580.374C382.235 581.592 385.027 583.09 387.729 584.855Z" fill="black"/>
<path d="M406.024 617.476C406.511 618.776 406.976 620.456 406.276 621.563C405.737 622.414 404.659 622.561 404.338 623.598C404.25 623.974 404.253 624.377 404.347 624.751C404.441 625.124 404.62 625.447 404.86 625.672C405.344 626.117 405.905 626.383 406.488 626.446C407.875 626.702 409.281 626.686 410.664 626.4C411.413 626.326 412.122 625.914 412.677 625.231C413.159 624.332 413.411 623.245 413.394 622.135L414.351 607.291C414.436 606.585 414.399 605.862 414.243 605.178C413.858 603.917 412.757 603.398 411.759 603.174C410.644 602.919 409.508 602.856 408.381 602.988C407.62 603.002 406.883 603.344 406.276 603.963C405.713 604.829 405.366 605.912 405.284 607.059C405.026 608.824 404.303 611.269 404.458 613.057C404.556 614.535 405.542 616.176 406.024 617.476Z" fill="#FF0000"/>
<path d="M393.36 612.678C391.21 612.299 389.023 612.631 386.989 613.645C386.335 613.97 385.618 614.52 385.52 615.449C385.507 615.836 385.581 616.221 385.733 616.551C385.884 616.881 386.106 617.141 386.369 617.298C386.903 617.597 387.478 617.737 388.055 617.709C391.088 617.817 394.122 617.6 397.129 617.058C397.91 616.99 398.667 616.669 399.337 616.122C399.668 615.838 399.917 615.41 400.043 614.909C400.169 614.408 400.165 613.864 400.031 613.367C399.669 612.345 398.683 612.028 398.207 611.107C397.863 610.441 397.777 609.458 397.237 609.11C396.83 608.935 396.388 608.98 396.004 609.234C395.431 609.505 394.054 609.776 393.659 610.418C393.487 611.151 393.387 611.91 393.36 612.678Z" fill="#FF0000"/>
<path d="M385.239 537.784C389.398 537.784 392.77 533.234 392.77 527.622C392.77 522.01 389.398 517.46 385.239 517.46C381.081 517.46 377.709 522.01 377.709 527.622C377.709 533.234 381.081 537.784 385.239 537.784Z" fill="#FABDBD"/>
<path d="M403.099 523.149C401.889 521.949 400.363 521.539 398.889 521.167C398.392 520.958 397.855 520.994 397.375 521.268C397.058 521.578 396.807 521.994 396.647 522.475C396.193 523.469 395.856 524.553 395.649 525.687C395.548 526.255 395.547 526.848 395.647 527.416C395.746 527.985 395.943 528.514 396.222 528.961C396.67 529.58 397.312 529.89 397.771 530.509C398.069 530.957 398.285 531.492 398.402 532.073C398.52 532.653 398.535 533.262 398.448 533.852C398.263 535.026 397.923 536.145 397.444 537.157C396.338 539.788 395.076 542.293 393.67 544.649C392.208 547.102 390.567 549.463 389.707 552.388C389.228 553.922 389.029 555.59 389.129 557.25C389.229 558.91 389.624 560.513 390.281 561.923C391.674 564.663 394.45 566.133 396.75 564.949C396.541 565.221 396.374 565.548 396.262 565.91C396.15 566.272 396.093 566.662 396.096 567.054L399.251 569.167C399.484 569.283 399.684 569.494 399.824 569.771C399.909 570.056 399.929 570.368 399.881 570.668C399.634 572.385 399.505 574.129 399.497 575.877C399.583 577.618 400.174 579.453 401.344 580.211C402.416 580.908 403.69 580.536 404.86 580.211C407.592 579.464 410.371 579.07 413.159 579.035C414.546 579.035 415.98 579.081 417.259 578.354C418.116 577.844 418.847 577.011 419.362 575.955C419.878 574.9 420.157 573.666 420.167 572.402C420.11 571.059 419.895 569.738 419.53 568.486C417.758 561.288 415.98 554.075 413.606 547.195C412.059 542.617 410.174 538.26 407.98 534.193C407.406 533.163 406.833 532.15 406.196 531.167C405.749 530.462 404.745 529.472 404.561 528.574C404.378 527.676 404.768 526.809 404.561 525.896C404.304 524.793 403.791 523.83 403.099 523.149Z" fill="#FF0000"/>
<path d="M421.578 587.471C418.274 585.412 414.971 583.353 411.535 581.751C409.006 580.575 406.185 579.654 403.701 580.977C402.956 581.38 402.279 581.96 401.562 582.432C399.159 583.98 396.4 584.243 393.745 584.638C387.836 585.536 382.029 587.399 376.453 590.187C375.117 590.853 373.677 591.735 373.012 593.422C372.636 594.645 372.509 595.981 372.645 597.292C372.742 599.266 372.966 601.34 373.878 602.88C375.392 605.434 378.139 605.627 380.491 606.432C382.3 607.139 384.054 608.083 385.727 609.249C391.221 612.786 396.721 616.323 402.113 620.154C402.743 620.611 403.512 620.154 404.051 619.512C405.675 617.477 406.847 614.872 407.435 611.989C408.019 609.12 408.309 606.157 408.295 603.182C410.406 603.182 412.12 603.058 414.231 603.058C415.007 603.124 415.786 602.99 416.525 602.663C417.942 601.889 418.71 599.854 419.347 597.981C420.482 594.676 421.761 591.093 421.578 587.471Z" fill="#3F3D56"/>
<path opacity="0.1" d="M383.221 598.051C384.706 597.076 386.427 597.052 388.084 597.068C389.095 597.043 390.105 597.147 391.101 597.377C392.622 597.924 394.099 598.674 395.511 599.614C399.029 601.606 402.811 602.607 406.626 602.555" fill="black"/>
<path d="M374.652 529.061C375.787 530.474 377.195 531.427 378.713 531.809C380.204 532.273 381.741 532.451 383.244 532.9C385.09 533.45 387.109 534.765 387.528 537.257C387.624 538.256 387.644 539.265 387.585 540.268C387.558 540.77 387.613 541.274 387.747 541.743C387.881 542.213 388.09 542.637 388.359 542.985C388.655 543.255 388.98 543.461 389.323 543.596C392.331 545.148 394.924 547.885 396.765 551.451C398.606 555.018 399.61 559.249 399.646 563.595C400.591 562.851 401.4 561.831 402.014 560.61C402.627 559.388 403.029 557.996 403.191 556.536C403.191 559.23 404.911 561.954 403.936 564.361C405 563.423 405.907 562.197 406.602 560.761C407.296 559.325 407.762 557.71 407.969 556.018C408.177 554.327 408.122 552.595 407.808 550.934C407.493 549.273 406.927 547.717 406.144 546.367C405.387 545.067 404.424 543.983 403.632 542.737C402.509 540.987 401.665 538.942 401.154 536.732C400.642 534.521 400.475 532.192 400.661 529.89C400.828 527.932 401.235 525.95 400.931 524.023C400.489 521.353 398.752 519.496 397.1 517.909C395.939 516.73 394.694 515.708 393.383 514.86C391.648 513.89 389.812 513.287 387.941 513.072C383.806 512.445 380.129 513.312 377.566 518.025C377.046 519.102 376.381 520.037 375.604 520.78C375.029 521.147 374.491 521.613 374.004 522.166C372.691 524.131 373.436 527.382 374.652 529.061Z" fill="#3F3D56"/>
<path d="M297.307 415.749C297.072 415.618 280.726 406.508 282.969 404.697C284.305 403.622 285.951 399.071 287.075 395.503C287.861 393.019 288.394 391.006 288.394 391.006C288.394 391.006 301.516 387.864 296.819 398.746C296.079 400.411 295.521 402.213 295.162 404.094C293.808 411.446 297.175 415.61 297.307 415.749Z" fill="#A1616A"/>
<path opacity="0.1" d="M296.802 398.715C296.062 400.38 295.504 402.182 295.145 404.063C293.481 403.902 291.881 403.133 290.516 401.838C289.152 400.542 288.075 398.77 287.402 396.71C287.27 396.317 287.155 395.914 287.058 395.503C287.844 393.018 288.377 391.006 288.377 391.006C288.377 391.006 301.499 387.864 296.802 398.715Z" fill="black"/>
<path d="M304.958 391.316C304.948 394.147 304.22 396.888 302.894 399.083C301.569 401.277 299.726 402.793 297.673 403.376C295.62 403.96 293.481 403.577 291.612 402.291C289.743 401.004 288.257 398.893 287.402 396.308C286.885 394.736 286.619 393.035 286.622 391.316C286.633 388.343 287.437 385.475 288.886 383.235C290.335 380.996 292.333 379.535 294.514 379.119C296.696 378.703 298.915 379.36 300.767 380.97C302.619 382.58 303.98 385.035 304.602 387.887C304.838 389.002 304.957 390.156 304.958 391.316Z" fill="#A1616A"/>
<path opacity="0.1" d="M313.801 487.168C313.145 488.133 312.686 489.312 312.471 490.589C312.471 490.589 307.963 494.745 308.261 492.137C308.559 489.529 305.91 478.825 305.91 478.825L306.208 493.329C306.208 493.329 291.784 492.415 290.723 491.007C289.662 489.598 283.542 486.835 283.542 486.835C283.542 486.835 281.655 488.879 279.917 490.426C279.688 488.677 279.522 487.137 279.522 487.137L285.722 480.396L301.207 474.917L307.022 472.394L312.694 484.459C312.694 484.459 313.279 485.713 313.801 487.168Z" fill="black"/>
<path d="M314.272 486.023C313.073 487.037 312.62 489.776 312.62 489.776C312.62 489.776 308.112 493.932 308.41 491.324C308.708 488.716 306.082 478.043 306.082 478.043L306.386 492.547C306.386 492.547 291.956 491.634 290.9 490.225C289.845 488.817 283.685 486.069 283.685 486.069C283.685 486.069 278.352 491.85 277.377 491.34C276.402 490.829 279.097 481 279.097 481L281.873 423.403C281.873 423.403 281.122 406.268 282.252 405.657C282.426 405.564 282.585 405.427 282.722 405.255C283.468 404.357 283.691 402.53 283.754 400.99C283.829 399.171 285.63 400.077 285.63 400.077L284.58 401.903L293.894 409.542L293.975 409.612C294.347 409.353 294.73 409.123 295.122 408.923C295.947 408.497 297.043 408.095 297.76 408.497C298.16 408.775 298.5 409.188 298.746 409.697C299.279 410.773 299.705 411.939 300.014 413.164L303.398 420.865C303.398 420.865 305.118 431.112 305.118 431.514C305.118 431.917 305.646 441.25 306.265 442.264C306.885 443.278 307.47 448.347 307.246 449.872C307.022 451.397 307.619 457.07 307.619 457.07C310.102 459.809 311.375 469.135 311.375 469.135C311.375 469.135 315.287 479.584 315.585 480.799C315.883 482.014 315.476 485.009 314.272 486.023Z" fill="#444053"/>
<path opacity="0.1" d="M293.906 409.906C292.988 411.732 290.35 414.294 290.35 414.294L282.733 405.618C283.479 404.72 283.703 402.886 283.766 401.354C283.84 399.527 285.641 400.441 285.641 400.441L285.423 400.82C285.319 401.002 285.245 401.212 285.205 401.435C285.165 401.659 285.16 401.891 285.191 402.118C285.222 402.344 285.287 402.559 285.384 402.749C285.48 402.938 285.605 403.099 285.75 403.219L293.906 409.906Z" fill="black"/>
<path d="M293.906 409.496C292.988 411.322 290.35 413.892 290.35 413.892L282.733 405.208C283.479 404.31 283.703 402.484 283.766 400.944C283.84 399.125 285.641 400.03 285.641 400.03L285.423 400.41C285.319 400.592 285.245 400.802 285.205 401.025C285.165 401.249 285.16 401.481 285.191 401.707C285.222 401.934 285.287 402.149 285.384 402.338C285.48 402.528 285.605 402.688 285.75 402.809L293.906 409.496Z" fill="#444053"/>
<path opacity="0.1" d="M297.427 410.866C296.441 412.452 295.047 414.255 295.133 413.35C295.219 412.444 294.301 410.455 293.734 409.565C294.626 409.186 295.588 409.222 296.464 409.666C296.856 409.948 297.188 410.361 297.427 410.866Z" fill="black"/>
<path d="M297.576 410.254C296.59 411.848 295.196 413.644 295.282 412.746C295.368 411.848 294.542 410.378 293.969 409.488C294.795 409.062 295.89 408.66 296.607 409.062C297.002 409.337 297.337 409.748 297.576 410.254Z" fill="#444053"/>
<path opacity="0.1" d="M282.739 405.711C282.739 405.711 282.837 404.496 281.535 406.593C280.442 408.131 279.186 409.441 277.807 410.479C277.807 410.479 272.249 415.757 271.945 418.218C271.642 420.679 269.841 431.197 270.798 434.711C271.756 438.224 279.017 455.065 279.017 455.065C279.017 455.065 277.113 458.107 277.56 461.69C278.008 465.273 278.564 470.203 278.312 471.287C278.059 472.37 278.616 475.071 277.738 476.016C276.861 476.96 275.989 478.585 278.644 480.752C278.644 480.752 279.143 482.579 278.69 482.981C278.237 483.384 285.354 487.578 288.159 485.349C290.963 483.12 296.028 465.273 296.125 461.28C296.223 457.286 294.571 444.114 293.671 441.003C292.77 437.891 290.063 425.787 288.91 423.086C287.757 420.385 282.739 405.711 282.739 405.711Z" fill="black"/>
<path d="M282.435 405.711C282.435 405.711 282.539 404.496 281.237 406.593C280.137 408.145 278.871 409.466 277.48 410.51C277.48 410.51 271.917 415.788 271.619 418.249C271.32 420.71 269.514 431.228 270.472 434.742C271.429 438.255 278.684 455.096 278.684 455.096C278.684 455.096 276.78 458.138 277.233 461.721C277.686 465.304 278.237 470.234 277.985 471.318C277.732 472.401 278.283 475.102 277.411 476.047C276.539 476.991 275.656 478.616 278.312 480.783C278.312 480.783 278.816 482.61 278.363 483.012C277.91 483.414 285.028 487.609 287.832 485.38C290.637 483.151 295.695 465.304 295.798 461.311C295.902 457.317 294.244 444.145 293.344 441.034C292.443 437.922 289.736 425.818 288.583 423.117C287.431 420.416 282.435 405.711 282.435 405.711Z" fill="#FF0000"/>
<path opacity="0.1" d="M280.434 417.204C280.434 417.204 284.741 423.628 284.592 427.884C284.592 427.884 284.643 420.989 280.434 417.204Z" fill="black"/>
<path opacity="0.1" d="M294.972 408.01C294.972 408.01 297.765 405.688 301.281 411.593C301.281 411.593 303.833 413.551 304.585 414.031C305.336 414.511 306.191 427.072 306.191 427.072C306.191 427.072 307.842 432.489 307.389 435.585C306.936 438.681 308.697 449.377 308.697 449.377C308.697 449.377 311.599 468.578 311.501 469.112C311.404 469.646 308.542 463.099 308.594 459.825C308.645 456.551 306.191 446.436 305.841 445.832C305.491 445.228 303.082 427.846 303.082 427.846C303.082 427.846 301.132 420.478 299.876 418.048C298.62 415.617 297.071 411.013 296.435 410.2C295.968 409.656 295.446 409.203 294.886 408.853L294.972 408.01Z" fill="black"/>
<path d="M294.938 408.01C294.938 408.01 298.069 405.688 301.574 411.593C301.574 411.593 304.132 413.551 304.883 414.031C305.634 414.511 306.483 427.072 306.483 427.072C306.483 427.072 308.135 432.489 307.687 435.585C307.24 438.681 308.989 449.377 308.989 449.377C308.989 449.377 311.897 468.578 311.794 469.112C311.691 469.646 308.84 463.099 308.886 459.825C308.932 456.551 306.483 446.436 306.133 445.832C305.783 445.228 303.38 427.846 303.38 427.846C303.38 427.846 301.425 420.54 300.174 418.086C298.924 415.633 297.364 411.051 296.733 410.239C296.176 409.652 295.55 409.197 294.881 408.892L294.938 408.01Z" fill="#FF0000"/>
<path d="M308.691 450.259C308.691 450.259 314.65 444.989 317.529 447.589C320.408 450.189 325.123 453.881 320.489 456.551C315.854 459.221 309.442 458.71 309.442 458.71L308.691 450.259Z" fill="#A1616A"/>
<path opacity="0.1" d="M304.545 501.13C303.656 503.707 302.922 516.609 302.423 520.726C301.711 519.078 300.851 517.112 300.559 516.493C299.887 514.535 299.303 512.524 298.809 510.472C299.383 508.614 300.937 503.289 300.937 501.339C300.937 498.955 303.805 495.96 303.805 495.96C304.317 496.606 304.665 497.454 304.798 498.383C304.931 499.312 304.842 500.274 304.545 501.13Z" fill="black"/>
<path opacity="0.1" d="M304.602 387.887C304.459 387.988 304.309 388.07 304.155 388.135C303.449 388.39 302.761 387.748 302.136 387.237C301.511 386.726 300.645 386.347 300.1 387.013C299.394 387.88 299.905 389.729 299.176 390.565C298.718 391.099 297.989 390.913 297.456 391.339C296.922 391.765 296.791 392.732 296.659 393.553C296.527 394.373 296.274 395.317 295.672 395.557C295.07 395.797 294.525 395.271 293.952 395.294C293.831 395.294 293.688 395.294 293.607 395.201C293.554 395.094 293.534 394.964 293.55 394.837C293.622 393.852 293.555 392.857 293.355 391.904C293.25 391.428 293.054 390.999 292.786 390.659C292.518 390.319 292.188 390.081 291.83 389.969C290.774 389.752 289.885 390.999 289.266 392.175C288.615 393.413 288.023 394.705 287.494 396.045C287.465 396.114 287.436 396.207 287.402 396.315C286.885 394.744 286.619 393.043 286.622 391.324C286.633 388.351 287.437 385.483 288.886 383.243C290.335 381.004 292.333 379.543 294.514 379.127C296.696 378.711 298.915 379.368 300.767 380.978C302.619 382.588 303.98 385.043 304.602 387.895V387.887Z" fill="black"/>
<path d="M289.277 391.981C289.897 390.805 290.786 389.559 291.841 389.776C292.198 389.888 292.528 390.125 292.795 390.463C293.063 390.801 293.26 391.229 293.367 391.703C293.567 392.655 293.631 393.651 293.556 394.636C293.543 394.766 293.565 394.898 293.619 395.008C293.699 395.131 293.843 395.108 293.963 395.1C294.537 395.1 295.139 395.588 295.684 395.364C296.228 395.139 296.544 394.179 296.67 393.359C296.796 392.539 296.94 391.594 297.467 391.146C297.995 390.697 298.712 390.89 299.188 390.372C299.916 389.536 299.406 387.678 300.111 386.819C300.656 386.154 301.522 386.533 302.147 387.044C302.772 387.554 303.461 388.197 304.166 387.941C304.399 387.829 304.627 387.697 304.849 387.547C305.967 386.974 307.412 387.949 308.324 386.92C308.657 386.469 308.896 385.909 309.018 385.295C309.271 384.47 309.441 383.603 309.523 382.717C309.605 381.82 309.424 380.914 309.018 380.194C308.445 379.25 307.412 379.01 306.649 378.314C306.031 377.657 305.518 376.838 305.141 375.907C304.764 374.975 304.267 374.141 303.673 373.445C303.371 373.103 303.006 372.879 302.617 372.797C302.228 372.715 301.829 372.779 301.465 372.981C301.246 373.189 301.001 373.344 300.742 373.438C300.461 373.447 300.184 373.344 299.945 373.144C297.341 371.487 294.307 371.782 291.451 372.277C290.299 372.399 289.168 372.768 288.102 373.368C287.569 373.672 287.092 374.127 286.702 374.703C286.312 375.279 286.018 375.961 285.842 376.704C285.613 377.896 285.79 379.188 285.509 380.365C285.32 381.138 284.936 381.843 284.706 382.624C284.098 384.761 284.827 387.113 285.137 389.365C285.475 391.827 285.303 394.489 286.077 396.819C286.232 397.275 286.398 398.072 286.783 397.77C287.064 397.546 287.356 396.223 287.499 395.843C288.033 394.508 288.627 393.219 289.277 391.981Z" fill="#3F3D56"/>
<path opacity="0.1" d="M272.771 431.607L271.418 436.792C271.418 436.792 274.624 452.883 276.126 456.265C277.629 459.647 279.831 464.004 279.831 464.004C282.347 465.528 285.145 465.998 287.861 465.351C292.168 464.205 304.74 461.164 304.74 461.164C305.037 461.236 305.343 461.199 305.625 461.056C305.908 460.913 306.157 460.669 306.345 460.351C306.919 459.268 309.752 458.726 309.752 458.726C309.752 458.726 313.056 452.24 309.001 449.532C309.001 449.532 308.502 451.025 306.345 450.004C304.189 448.982 303.541 450.816 303.541 450.816C303.541 450.816 300.031 451.768 298.081 451.428C296.131 451.087 291.268 450.956 290.763 450.414C290.7 450.338 290.628 450.28 290.548 450.243C290.469 450.206 290.386 450.19 290.302 450.196C290.218 450.203 290.136 450.231 290.061 450.281C289.986 450.33 289.918 450.399 289.862 450.483C289.282 450.201 288.741 449.787 288.262 449.261C287.861 448.657 287.31 449.942 287.31 449.942C287.31 449.942 286.605 449.4 286.806 448.727C287.006 448.053 286.157 445.476 286.157 445.476C285.931 444.492 285.88 443.45 286.008 442.434C286.255 441.08 284.752 436.243 284.752 436.243C284.734 435.422 284.802 434.601 284.953 433.805C285.205 432.59 283.049 430.152 283.049 430.152C283.049 430.152 280.944 416.368 276.488 420.865C272.032 425.361 272.771 431.607 272.771 431.607Z" fill="black"/>
<path d="M272.467 431.607L271.114 436.792C271.114 436.792 274.32 452.883 275.822 456.265C277.325 459.647 279.533 464.004 279.533 464.004C282.049 465.531 284.847 466 287.562 465.351C291.875 464.205 304.447 461.164 304.447 461.164C304.744 461.236 305.05 461.199 305.333 461.056C305.616 460.913 305.864 460.669 306.053 460.351C306.626 459.268 309.46 458.726 309.46 458.726C309.46 458.726 312.763 452.24 308.708 449.531C308.708 449.531 308.204 451.025 306.053 450.004C303.902 448.982 303.243 450.816 303.243 450.816C303.243 450.816 299.738 451.768 297.783 451.428C295.827 451.087 290.969 450.955 290.47 450.414C290.408 450.338 290.335 450.28 290.256 450.243C290.177 450.206 290.093 450.19 290.009 450.196C289.926 450.203 289.844 450.231 289.768 450.281C289.693 450.33 289.625 450.399 289.57 450.483C288.987 450.201 288.444 449.788 287.964 449.261C287.562 448.657 287.012 449.942 287.012 449.942C287.012 449.942 286.312 449.4 286.513 448.727C286.714 448.053 285.859 445.476 285.859 445.476C285.636 444.491 285.585 443.45 285.71 442.434C285.962 441.08 284.46 436.243 284.46 436.243C284.438 435.421 284.506 434.6 284.66 433.805C284.907 432.59 282.756 430.152 282.756 430.152C282.756 430.152 280.652 416.368 276.195 420.865C271.739 425.361 272.467 431.607 272.467 431.607Z" fill="#FF0000"/>
<path opacity="0.1" d="M284.844 447.287C284.844 447.287 279.935 448.641 281.586 449.787C283.238 450.932 284.844 447.287 284.844 447.287Z" fill="black"/>
<g opacity="0.1">
<path opacity="0.1" d="M293.355 390.557C293.251 390.082 293.055 389.653 292.786 389.314C292.518 388.975 292.188 388.739 291.83 388.63C290.774 388.413 289.885 389.659 289.266 390.828C288.616 392.068 288.022 393.36 287.488 394.698C287.327 395.1 287.052 396.4 286.771 396.625C286.387 396.927 286.198 396.122 286.066 395.665C285.291 393.343 285.492 390.673 285.125 388.212C284.854 386.781 284.638 385.332 284.477 383.87C284.362 385.635 284.878 387.492 285.125 389.288C285.463 391.749 285.291 394.411 286.066 396.741C286.221 397.198 286.387 397.995 286.771 397.693C287.052 397.469 287.345 396.145 287.488 395.774C288.021 394.435 288.614 393.143 289.266 391.904C289.885 390.728 290.774 389.481 291.83 389.706C292.188 389.815 292.518 390.051 292.786 390.39C293.055 390.729 293.251 391.158 293.355 391.633C293.479 392.133 293.546 392.654 293.556 393.181C293.613 392.297 293.545 391.407 293.355 390.557Z" fill="black"/>
<path opacity="0.1" d="M309.007 384.165C308.886 384.777 308.646 385.335 308.313 385.782C307.401 386.811 305.956 385.844 304.837 386.417C304.608 386.533 304.396 386.719 304.155 386.811C303.449 387.059 302.761 386.424 302.136 385.914C301.511 385.403 300.645 385.016 300.1 385.681C299.394 386.548 299.905 388.398 299.176 389.234C298.718 389.768 297.989 389.582 297.456 390.008C296.922 390.433 296.791 391.393 296.659 392.213C296.527 393.034 296.274 393.978 295.672 394.218C295.07 394.458 294.525 393.932 293.952 393.963C293.831 393.963 293.688 393.963 293.607 393.87C293.588 393.842 293.574 393.807 293.567 393.769C293.567 394.04 293.567 394.311 293.567 394.582C293.555 394.709 293.578 394.838 293.63 394.945C293.711 395.069 293.854 395.046 293.975 395.046C294.548 395.046 295.15 395.526 295.695 395.302C296.24 395.077 296.555 394.125 296.682 393.297C296.808 392.469 296.951 391.54 297.479 391.091C298.006 390.642 298.723 390.836 299.199 390.317C299.928 389.482 299.417 387.632 300.123 386.765C300.668 386.099 301.534 386.479 302.159 386.989C302.784 387.5 303.472 388.143 304.178 387.887C304.41 387.774 304.638 387.645 304.86 387.5C305.978 386.927 307.424 387.895 308.336 386.866C308.668 386.418 308.907 385.86 309.03 385.248C309.282 384.42 309.451 383.551 309.534 382.663C309.56 382.362 309.56 382.058 309.534 381.758C309.424 382.584 309.247 383.391 309.007 384.165Z" fill="black"/>
</g>
<path d="M208.984 585.9C221.945 585.9 232.453 583.173 232.453 579.809C232.453 576.445 221.945 573.718 208.984 573.718C196.023 573.718 185.515 576.445 185.515 579.809C185.515 583.173 196.023 585.9 208.984 585.9Z" fill="#FF0000"/>
<path d="M208.594 582.053C210.102 582.053 211.324 579.891 211.324 577.224C211.324 574.557 210.102 572.394 208.594 572.394C207.086 572.394 205.864 574.557 205.864 577.224C205.864 579.891 207.086 582.053 208.594 582.053Z" fill="#3F3D56"/>
<path d="M208.594 576.156C210.102 576.156 211.324 573.994 211.324 571.326C211.324 568.659 210.102 566.497 208.594 566.497C207.086 566.497 205.864 568.659 205.864 571.326C205.864 573.994 207.086 576.156 208.594 576.156Z" fill="#3F3D56"/>
<path d="M208.594 570.258C210.102 570.258 211.324 568.096 211.324 565.429C211.324 562.762 210.102 560.599 208.594 560.599C207.086 560.599 205.864 562.762 205.864 565.429C205.864 568.096 207.086 570.258 208.594 570.258Z" fill="#3F3D56"/>
<path d="M208.594 564.353C210.102 564.353 211.324 562.191 211.324 559.524C211.324 556.857 210.102 554.694 208.594 554.694C207.086 554.694 205.864 556.857 205.864 559.524C205.864 562.191 207.086 564.353 208.594 564.353Z" fill="#3F3D56"/>
<path d="M208.594 558.456C210.102 558.456 211.324 556.294 211.324 553.626C211.324 550.959 210.102 548.797 208.594 548.797C207.086 548.797 205.864 550.959 205.864 553.626C205.864 556.294 207.086 558.456 208.594 558.456Z" fill="#3F3D56"/>
<path d="M208.594 552.558C210.102 552.558 211.324 550.396 211.324 547.729C211.324 545.062 210.102 542.899 208.594 542.899C207.086 542.899 205.864 545.062 205.864 547.729C205.864 550.396 207.086 552.558 208.594 552.558Z" fill="#3F3D56"/>
<path d="M208.594 546.661C210.102 546.661 211.324 544.499 211.324 541.831C211.324 539.164 210.102 537.002 208.594 537.002C207.086 537.002 205.864 539.164 205.864 541.831C205.864 544.499 207.086 546.661 208.594 546.661Z" fill="#3F3D56"/>
<path d="M218.82 501.463C219.193 500.82 219.533 500.143 219.835 499.435L212.66 497.849L220.42 497.926C221.165 495.739 221.571 493.371 221.615 490.965C221.658 488.559 221.337 486.166 220.672 483.933L210.257 491.224L219.881 481.681C218.98 479.585 217.769 477.761 216.323 476.324C214.877 474.886 213.228 473.865 211.477 473.325C209.727 472.785 207.912 472.737 206.147 473.183C204.382 473.63 202.704 474.562 201.218 475.921C199.731 477.281 198.468 479.038 197.506 481.085C196.544 483.132 195.905 485.424 195.628 487.818C195.351 490.212 195.442 492.658 195.896 495.003C196.35 497.347 197.156 499.541 198.265 501.447C197.682 502.444 197.182 503.524 196.774 504.667L206.088 511.199L196.154 506.695C195.454 509.478 195.28 512.453 195.648 515.349C196.017 518.246 196.916 520.972 198.265 523.28C196.746 525.885 195.801 529.014 195.538 532.31C195.275 535.605 195.705 538.934 196.778 541.916C197.851 544.897 199.524 547.411 201.606 549.17C203.688 550.929 206.095 551.862 208.551 551.862C211.007 551.862 213.414 550.929 215.496 549.17C217.578 547.411 219.251 544.897 220.324 541.916C221.397 538.934 221.827 535.605 221.564 532.31C221.301 529.014 220.356 525.885 218.837 523.28C220.651 520.168 221.637 516.323 221.637 512.364C221.637 508.404 220.651 504.56 218.837 501.447L218.82 501.463Z" fill="#FF0000"/>
<path opacity="0.1" d="M195.443 512.375C195.439 516.338 196.427 520.186 198.248 523.296C196.729 525.901 195.784 529.03 195.521 532.325C195.258 535.621 195.688 538.95 196.761 541.931C197.834 544.913 199.507 547.427 201.589 549.185C203.671 550.944 206.078 551.877 208.534 551.877C210.99 551.877 213.397 550.944 215.479 549.185C217.561 547.427 219.234 544.913 220.307 541.931C221.38 538.95 221.809 535.621 221.546 532.325C221.283 529.03 220.339 525.901 218.82 523.296C220.575 520.293 195.443 510.394 195.443 512.375Z" fill="black"/>
<path d="M601.848 642.397C614.809 642.397 625.317 639.67 625.317 636.306C625.317 632.942 614.809 630.215 601.848 630.215C588.887 630.215 578.379 632.942 578.379 636.306C578.379 639.67 588.887 642.397 601.848 642.397Z" fill="#FF0000"/>
<path d="M601.458 638.551C602.966 638.551 604.188 636.388 604.188 633.721C604.188 631.054 602.966 628.892 601.458 628.892C599.95 628.892 598.728 631.054 598.728 633.721C598.728 636.388 599.95 638.551 601.458 638.551Z" fill="#3F3D56"/>
<path d="M601.458 632.653C602.966 632.653 604.188 630.491 604.188 627.824C604.188 625.157 602.966 622.995 601.458 622.995C599.95 622.995 598.728 625.157 598.728 627.824C598.728 630.491 599.95 632.653 601.458 632.653Z" fill="#3F3D56"/>
<path d="M601.458 626.756C602.966 626.756 604.188 624.594 604.188 621.926C604.188 619.259 602.966 617.097 601.458 617.097C599.95 617.097 598.728 619.259 598.728 621.926C598.728 624.594 599.95 626.756 601.458 626.756Z" fill="#3F3D56"/>
<path d="M601.458 620.851C602.966 620.851 604.188 618.688 604.188 616.021C604.188 613.354 602.966 611.192 601.458 611.192C599.95 611.192 598.728 613.354 598.728 616.021C598.728 618.688 599.95 620.851 601.458 620.851Z" fill="#3F3D56"/>
<path d="M601.458 614.953C602.966 614.953 604.188 612.791 604.188 610.124C604.188 607.457 602.966 605.294 601.458 605.294C599.95 605.294 598.728 607.457 598.728 610.124C598.728 612.791 599.95 614.953 601.458 614.953Z" fill="#3F3D56"/>
<path d="M601.458 609.056C602.966 609.056 604.188 606.894 604.188 604.227C604.188 601.559 602.966 599.397 601.458 599.397C599.95 599.397 598.728 601.559 598.728 604.227C598.728 606.894 599.95 609.056 601.458 609.056Z" fill="#3F3D56"/>
<path d="M601.458 603.158C602.966 603.158 604.188 600.996 604.188 598.329C604.188 595.662 602.966 593.5 601.458 593.5C599.95 593.5 598.728 595.662 598.728 598.329C598.728 600.996 599.95 603.158 601.458 603.158Z" fill="#3F3D56"/>
<path d="M611.684 557.96C612.058 557.318 612.397 556.64 612.699 555.933L605.524 554.346L613.284 554.424C614.029 552.237 614.435 549.868 614.479 547.462C614.522 545.056 614.202 542.664 613.536 540.431L603.121 547.721L612.745 538.179C611.844 536.082 610.633 534.259 609.187 532.821C607.741 531.384 606.092 530.363 604.341 529.823C602.591 529.283 600.776 529.234 599.011 529.681C597.246 530.127 595.568 531.059 594.082 532.419C592.595 533.778 591.332 535.536 590.37 537.583C589.408 539.629 588.769 541.921 588.492 544.316C588.215 546.71 588.307 549.156 588.76 551.5C589.214 553.845 590.02 556.039 591.129 557.945C590.546 558.942 590.046 560.021 589.638 561.165L598.952 567.697L589.018 563.192C588.318 565.975 588.144 568.95 588.512 571.847C588.881 574.743 589.78 577.47 591.129 579.778C589.61 582.383 588.665 585.512 588.402 588.808C588.139 592.103 588.569 595.432 589.642 598.413C590.715 601.395 592.388 603.909 594.47 605.668C596.552 607.427 598.959 608.359 601.415 608.359C603.871 608.359 606.278 607.427 608.36 605.668C610.442 603.909 612.115 601.395 613.188 598.413C614.261 595.432 614.691 592.103 614.428 588.808C614.165 585.512 613.22 582.383 611.701 579.778C613.515 576.665 614.501 572.821 614.501 568.861C614.501 564.902 613.515 561.057 611.701 557.945L611.684 557.96Z" fill="#FF0000"/>
<path opacity="0.1" d="M588.307 568.873C588.303 572.836 589.291 576.684 591.112 579.793C589.593 582.398 588.648 585.527 588.385 588.823C588.122 592.118 588.552 595.447 589.625 598.429C590.698 601.41 592.371 603.924 594.453 605.683C596.535 607.442 598.942 608.375 601.398 608.375C603.854 608.375 606.261 607.442 608.343 605.683C610.424 603.924 612.098 601.41 613.171 598.429C614.244 595.447 614.673 592.118 614.41 588.823C614.147 585.527 613.203 582.398 611.684 579.793C613.439 576.79 588.307 566.892 588.307 568.873Z" fill="black"/>
<path opacity="0.1" d="M294.686 226.42C299.522 226.42 303.443 221.129 303.443 214.602C303.443 208.075 299.522 202.784 294.686 202.784C289.849 202.784 285.928 208.075 285.928 214.602C285.928 221.129 289.849 226.42 294.686 226.42Z" fill="#FF0000"/>
<path opacity="0.1" d="M326.017 181.718C334.126 181.718 340.699 172.847 340.699 161.905C340.699 150.962 334.126 142.092 326.017 142.092C317.909 142.092 311.335 150.962 311.335 161.905C311.335 172.847 317.909 181.718 326.017 181.718Z" fill="#FF0000"/>
<path opacity="0.1" d="M306.586 277.856C314.695 277.856 321.269 268.986 321.269 258.044C321.269 247.101 314.695 238.231 306.586 238.231C298.478 238.231 291.904 247.101 291.904 258.044C291.904 268.986 298.478 277.856 306.586 277.856Z" fill="#FF0000"/>
<path opacity="0.1" d="M615.572 368.825C620.409 368.825 624.33 363.534 624.33 357.007C624.33 350.48 620.409 345.189 615.572 345.189C610.736 345.189 606.815 350.48 606.815 357.007C606.815 363.534 610.736 368.825 615.572 368.825Z" fill="#FF0000"/>
<path opacity="0.1" d="M584.235 324.122C592.344 324.122 598.917 315.252 598.917 304.31C598.917 293.367 592.344 284.497 584.235 284.497C576.126 284.497 569.553 293.367 569.553 304.31C569.553 315.252 576.126 324.122 584.235 324.122Z" fill="#FF0000"/>
<path opacity="0.1" d="M603.672 420.261C611.781 420.261 618.354 411.391 618.354 400.448C618.354 389.506 611.781 380.635 603.672 380.635C595.563 380.635 588.99 389.506 588.99 400.448C588.99 411.391 595.563 420.261 603.672 420.261Z" fill="#FF0000"/>
<path opacity="0.1" d="M120.529 385.109C123.269 385.109 125.49 382.112 125.49 378.414C125.49 374.717 123.269 371.72 120.529 371.72C117.79 371.72 115.568 374.717 115.568 378.414C115.568 382.112 117.79 385.109 120.529 385.109Z" fill="#FF0000"/>
<path opacity="0.1" d="M141.796 364.298C146.389 364.298 150.112 359.273 150.112 353.075C150.112 346.878 146.389 341.853 141.796 341.853C137.203 341.853 133.48 346.878 133.48 353.075C133.48 359.273 137.203 364.298 141.796 364.298Z" fill="#FF0000"/>
<path opacity="0.1" d="M101.993 381.704C106.586 381.704 110.309 376.679 110.309 370.481C110.309 364.284 106.586 359.259 101.993 359.259C97.4002 359.259 93.677 364.284 93.677 370.481C93.677 376.679 97.4002 381.704 101.993 381.704Z" fill="#FF0000"/>
<path opacity="0.1" d="M488.158 344.864C490.898 344.864 493.119 341.867 493.119 338.169C493.119 334.472 490.898 331.475 488.158 331.475C485.418 331.475 483.197 334.472 483.197 338.169C483.197 341.867 485.418 344.864 488.158 344.864Z" fill="#FF0000"/>
<path opacity="0.1" d="M509.425 324.053C514.017 324.053 517.741 319.029 517.741 312.831C517.741 306.633 514.017 301.609 509.425 301.609C504.832 301.609 501.109 306.633 501.109 312.831C501.109 319.029 504.832 324.053 509.425 324.053Z" fill="#FF0000"/>
<path opacity="0.1" d="M469.622 341.459C474.215 341.459 477.938 336.434 477.938 330.237C477.938 324.039 474.215 319.014 469.622 319.014C465.029 319.014 461.306 324.039 461.306 330.237C461.306 336.434 465.029 341.459 469.622 341.459Z" fill="#FF0000"/>
<path opacity="0.1" d="M186.949 280.294C198.431 280.294 207.739 267.733 207.739 252.239C207.739 236.744 198.431 224.184 186.949 224.184C175.467 224.184 166.159 236.744 166.159 252.239C166.159 267.733 175.467 280.294 186.949 280.294Z" fill="#FF0000"/>
<path opacity="0.1" d="M305.669 361.302C312.295 361.302 317.667 354.054 317.667 345.112C317.667 336.17 312.295 328.921 305.669 328.921C299.042 328.921 293.671 336.17 293.671 345.112C293.671 354.054 299.042 361.302 305.669 361.302Z" fill="#FF0000"/>
<path opacity="0.1" d="M424.388 466.558C431.015 466.558 436.386 459.309 436.386 450.367C436.386 441.425 431.015 434.177 424.388 434.177C417.762 434.177 412.39 441.425 412.39 450.367C412.39 459.309 417.762 466.558 424.388 466.558Z" fill="#FF0000"/>
<path d="M208.984 600.705C246.835 600.705 277.52 592.389 277.52 582.13C277.52 571.872 246.835 563.556 208.984 563.556C171.133 563.556 140.448 571.872 140.448 582.13C140.448 592.389 171.133 600.705 208.984 600.705Z" stroke="#444053" stroke-miterlimit="10"/>
<path d="M601.848 655.655C639.699 655.655 670.384 647.339 670.384 637.08C670.384 626.822 639.699 618.505 601.848 618.505C563.996 618.505 533.312 626.822 533.312 637.08C533.312 647.339 563.996 655.655 601.848 655.655Z" stroke="#444053" stroke-miterlimit="10"/>
<path d="M131.558 665.732C169.41 665.732 200.094 657.416 200.094 647.158C200.094 636.899 169.41 628.583 131.558 628.583C93.7068 628.583 63.0222 636.899 63.0222 647.158C63.0222 657.416 93.7068 665.732 131.558 665.732Z" stroke="#444053" stroke-miterlimit="10"/>
<defs>
<linearGradient id="paint0_linear" x1="297.1" y1="603.104" x2="297.1" y2="370.605" gradientUnits="userSpaceOnUse">
<stop stop-color="#808080" stop-opacity="0.25"/>
<stop offset="0.54" stop-color="#808080" stop-opacity="0.12"/>
<stop offset="1" stop-color="#808080" stop-opacity="0.1"/>
</linearGradient>
<linearGradient id="paint1_linear" x1="-26095.8" y1="92661.4" x2="-30485" y2="92661.4" gradientUnits="userSpaceOnUse">
<stop stop-color="#808080" stop-opacity="0.25"/>
<stop offset="0.54" stop-color="#808080" stop-opacity="0.12"/>
<stop offset="1" stop-color="#808080" stop-opacity="0.1"/>
</linearGradient>
</defs>
</svg>
