<svg width="130" height="130" viewBox="0 0 130 130" fill="none" xmlns="http://www.w3.org/2000/svg">
<path d="M50.1566 75.59L61.906 7.81836L17.9374 89.3986L50.1566 75.59ZM68.094 7.81836L77.818 63.734L94.3592 56.6464L68.094 7.81836ZM27.092 101.4H45.6794L49.0958 81.7L26.2652 91.4838L27.092 101.4ZM55.8584 73.146L72.9066 65.84L65.0026 20.3972L55.8584 73.146ZM73.8218 71.105L54.7976 79.256L50.9574 101.4H79.0894L73.8218 71.105ZM21.2264 93.6443L13.9568 96.7592L11.4504 101.4H21.8738L21.2264 93.6443ZM78.7332 68.999L84.3674 101.4H118.55L96.8422 61.238L78.7332 68.999ZM104.468 106.6L106.761 120.349L118.219 106.6H104.468ZM44.7772 106.6H27.5262L28.8626 122.637L41.6806 124.467L44.7772 106.6ZM22.308 106.6H11.7806L23.4754 120.635L22.308 106.6ZM99.1978 106.6H85.2722L88.3766 124.46L101.852 122.533L99.1978 106.6Z" fill="black"/>
</svg>
