<svg width="130" height="130" viewBox="0 0 130 130" fill="none" xmlns="http://www.w3.org/2000/svg">
<path d="M80.7083 10.2917L114.292 35.75L106.708 97.5L39 117.542L24.9167 73.6667L16.25 19.5L80.7083 10.2917ZM83.4167 0L4.875 10.8333L15.1667 76.375L32.5 130L115.917 105.625L125.125 31.9583L83.4167 0Z" fill="black"/>
<path d="M85.0417 39.5417L67.7084 21.125L14.6251 28.7083L18.4167 70.4167L36.2917 124.042L110.5 100.75L120.25 33.0417L85.0417 39.5417ZM30.3334 97.5L26.0001 82.875L53.0834 77.4583L60.1251 90.4583L30.3334 97.5ZM57.4167 67.1667C56.8751 68.25 50.3751 55.25 50.3751 55.25L25.4584 60.125L20.0417 48.2083L68.7917 40.0833L86.1251 61.2083C86.1251 61.2083 57.9584 66.625 57.4167 67.1667Z" fill="black"/>
</svg>
