<svg width="130" height="130" viewBox="0 0 130 130" fill="none" xmlns="http://www.w3.org/2000/svg">
<path d="M26.4062 75.1562C26.4062 75.1562 65.1686 76.637 103.594 34.8705V28.4375C103.594 27.3163 102.684 26.4062 101.562 26.4062H28.4375C27.3163 26.4062 26.4062 27.3163 26.4062 28.4375V75.1562Z" stroke="black" stroke-width="2" stroke-miterlimit="10" stroke-linecap="round" stroke-linejoin="round"/>
<path d="M34.5312 103.594H28.4375C27.3163 103.594 26.4062 102.684 26.4062 101.562V85.3125C40.625 85.3125 79.4727 75.918 103.594 46.7188V101.562C103.594 102.684 102.684 103.594 101.562 103.594H95.4688H34.5312ZM48.2422 71.2217C48.2422 71.2217 44.6875 70.332 44.6875 62.207C44.6875 53.0664 51.2037 45.957 58.9062 40.625C58.9062 40.625 60.9375 44.8439 60.9375 52.8084C60.9375 67.8397 48.2422 71.2217 48.2422 71.2217Z" stroke="black" stroke-width="2" stroke-miterlimit="10" stroke-linecap="round" stroke-linejoin="round"/>
<path d="M71.0938 73.125C71.0938 73.125 74.6444 71.0836 79.4727 71.0938C85.6802 71.106 92.302 73.3241 95.4688 81.25C95.4688 81.25 91.4062 83.2813 85.3125 83.2813C71.8352 83.2813 71.0938 73.125 71.0938 73.125Z" stroke="black" stroke-width="2" stroke-miterlimit="10" stroke-linecap="round" stroke-linejoin="round"/>
<path d="M85.3125 99.5312V103.594M111.719 115.781H18.2812C16.0367 115.781 14.2188 113.963 14.2188 111.719V18.2812C14.2188 16.0367 16.0367 14.2188 18.2812 14.2188H111.719C113.963 14.2188 115.781 16.0367 115.781 18.2812V111.719C115.781 113.963 113.963 115.781 111.719 115.781ZM44.6875 99.5312V103.594V99.5312ZM54.8438 99.5312V103.594V99.5312ZM65 99.5312V103.594V99.5312ZM75.1562 99.5312V103.594V99.5312Z" stroke="black" stroke-width="2" stroke-miterlimit="10" stroke-linecap="round" stroke-linejoin="round"/>
</svg>
