<svg width="130" height="130" viewBox="0 0 130 130" fill="none" xmlns="http://www.w3.org/2000/svg">
<path d="M93.4375 109.687H36.5625C27.5871 109.687 20.3125 102.413 20.3125 93.4375V36.5625C20.3125 27.5871 27.5871 20.3125 36.5625 20.3125H93.4375C102.413 20.3125 109.687 27.5871 109.687 36.5625V93.4375C109.687 102.413 102.413 109.687 93.4375 109.687Z" stroke="black" stroke-width="3" stroke-miterlimit="10" stroke-linejoin="round"/>
<path d="M69.0625 85.3125L56.875 44.6875L44.6875 85.3125" stroke="black" stroke-width="3" stroke-miterlimit="10" stroke-linecap="round" stroke-linejoin="round"/>
<path d="M47.3958 77.1875H66.3541" stroke="black" stroke-width="3" stroke-miterlimit="10" stroke-linecap="round" stroke-linejoin="round"/>
<path d="M82.6042 63.6458V85.3124" stroke="black" stroke-width="3" stroke-miterlimit="10" stroke-linecap="round" stroke-linejoin="round"/>
<path d="M82.6042 55.5208C85.5957 55.5208 88.0208 53.0957 88.0208 50.1042C88.0208 47.1126 85.5957 44.6875 82.6042 44.6875C79.6126 44.6875 77.1875 47.1126 77.1875 50.1042C77.1875 53.0957 79.6126 55.5208 82.6042 55.5208Z" fill="black"/>
</svg>
