<svg width="130" height="130" viewBox="0 0 130 130" fill="none" xmlns="http://www.w3.org/2000/svg">
<path d="M31.9583 33.3667C31.9583 33.0417 32.0667 32.7708 32.5 32.7708C35.9125 32.6083 40.7875 32.5 46.0417 32.5C60.6667 32.5 67.0583 40.5167 67.0583 50.8083C67.0583 64.2417 57.2 69.9834 45.2833 69.9834C43.2792 69.9834 42.575 69.875 41.1667 69.875V90.4584C41.1667 90.8917 41.0042 91.0542 40.5708 91.0542H32.5542C32.1208 91.0542 31.9583 90.8917 31.9583 90.4584V33.3667ZM41.1667 61.425C42.3583 61.5334 43.3333 61.5333 45.4458 61.5333C51.6208 61.5333 57.525 59.3667 57.525 50.9708C57.525 44.2542 53.3 40.8417 46.2042 40.8417C44.0917 40.8417 42.0875 40.95 41.1667 41.0042V61.425ZM88.4 55.1417C84.2292 55.1417 82.8208 57.2542 82.8208 58.9875C82.8208 60.8834 83.7958 62.2375 89.375 65.1084C97.6625 69.1167 100.262 72.9625 100.262 78.65C100.262 87.1 93.8167 91.65 85.0958 91.65C80.4917 91.65 76.375 90.675 74.1 89.375C73.775 89.2125 73.6667 88.9417 73.6667 88.5084V80.7084C73.6667 80.1667 73.9375 80.0042 74.2625 80.275C77.5667 82.4417 81.6292 83.4167 85.0958 83.4167C89.2667 83.4167 91 81.6834 91 79.3C91 77.4042 89.8083 75.725 84.4458 72.9084C76.9167 69.3334 73.8292 65.65 73.8292 59.5834C73.8292 52.7584 79.1375 47.125 88.4 47.125C92.95 47.125 96.3083 47.8292 98.0417 48.5875C98.475 48.8583 98.5833 49.2917 98.5833 49.6167V56.875C98.5833 57.3083 98.3125 57.5792 97.825 57.4167C95.4417 56.0084 91.8125 55.1417 88.4 55.1417ZM23.0208 1.625C10.2917 1.625 0 11.9167 0 24.6458V105.354C0 118.083 10.2917 128.375 23.0208 128.375H106.979C119.708 128.375 130 118.083 130 105.354V24.6458C130 11.9167 119.708 1.625 106.979 1.625H23.0208ZM25.0792 7.04167H104.867C110.081 7.04167 115.083 9.11325 118.77 12.8007C122.458 16.4881 124.529 21.4894 124.529 26.7042V103.242C124.541 105.825 124.042 108.385 123.062 110.775C122.082 113.166 120.64 115.339 118.818 117.171C116.996 119.002 114.831 120.456 112.446 121.45C110.062 122.443 107.504 122.956 104.921 122.958H25.0792C14.2458 122.958 5.41667 114.129 5.41667 103.296V26.7042C5.41667 15.8708 14.2458 7.04167 25.0792 7.04167Z" fill="black"/>
</svg>
