<svg width="95" height="130" viewBox="0 0 95 130" fill="none" xmlns="http://www.w3.org/2000/svg">
<path fill-rule="evenodd" clip-rule="evenodd" d="M37.1298 118.329H56.449L53.8203 130H39.724L37.1298 118.329ZM31.763 46.9092C32.7692 64.4617 37.2372 86.3959 44.8986 111.854C46.2232 112.518 47.4813 112.492 48.68 111.854C56.3391 86.4045 60.8071 64.4757 61.8146 46.9259C65.1298 -16.25 28.5249 -14.4727 31.763 46.9092ZM39.7582 0C39.7582 0 17.2063 8.53531 18.8298 41.3641C20.453 74.1927 42.8841 111.836 42.8841 111.836C29.0749 99.5846 8.62145 61.4169 8.22739 38.9568C8.08546 19.043 21.6438 2.34355 39.7582 0ZM3.90261 41.8387C7.19907 75.173 41.1989 113.123 38.4846 110.634C30.9134 104.105 5.42046 73.3616 0.630009 44.5539C-4.16044 15.7465 20.064 5.76875 20.064 5.76875C6.00267 15.3022 2.32458 29.2536 3.90286 41.8389L3.90261 41.8387ZM55.813 110.269C57.6629 106.415 73.655 72.2889 75.1842 41.3641C76.8075 8.53531 54.2558 0 54.2558 0C56.3581 0.089375 61.0376 1.45438 65.4551 3.55977C69.8725 5.6649 85.4824 15.2565 85.7864 38.9568C85.5274 53.7113 78.5569 74.7246 69.8898 90.8807C78.6689 77.417 88.5197 59.0154 90.218 41.8387C91.7963 29.2536 88.1182 15.3022 74.0569 5.76875C74.0569 5.76875 98.2811 15.7465 93.4909 44.5539C88.6999 73.3616 63.1613 104.135 55.5906 110.665L55.813 110.269V110.269Z" fill="black"/>
</svg>
